<svg width="350" height="250" viewBox="0 0 350 250" fill="none" xmlns="http://www.w3.org/2000/svg">
<g clip-path="url(#clip0)">
<path d="M71.8236 177.506C71.9817 176.581 72.7991 174.883 74.8043 175.489C77.3107 176.247 85.1137 178.789 89.5947 171.208C94.0757 163.626 101.522 153.476 105.054 151.444C108.587 149.412 110.495 148.53 113.176 145.693C115.858 142.857 117.988 140.036 115.718 137.89C113.903 136.174 111.84 137.447 111.036 138.298C110.768 138.582 110.061 138.988 109.38 138.345C108.699 137.701 109.244 136.784 109.602 136.406C110.412 135.739 111.236 133.654 108.059 130.65C107.208 129.846 105.077 128.691 103.361 130.506C101.216 132.776 100.319 130.316 101.659 128.897C103 127.479 103.237 126.092 101.535 124.483C99.8332 122.874 98.4459 122.637 94.96 126.324C92.1712 129.275 89.1914 133.942 88.0501 135.907C86.4722 138.713 80.5977 145.836 69.7228 151.885C66.8211 153.439 62.0731 158.727 66.2944 167.445C66.6881 168.354 66.9269 170.298 64.732 170.802L71.8236 177.506ZM68.6523 182.565L72.6746 178.31L63.881 169.997L59.8588 174.252L68.6523 182.565Z" stroke="#214384" stroke-width="4"/>
<path d="M234.437 88.0774C235.193 87.5213 236.96 86.8662 237.983 88.6944C239.261 90.9797 243.114 98.2254 251.602 95.8778C260.09 93.5301 272.495 91.3913 276.449 92.3802C280.402 93.369 282.388 94.0584 286.288 93.8775C290.187 93.6965 293.678 93.1438 293.533 90.0244C293.417 87.5288 291.049 87.0135 289.879 87.0678C289.489 87.0859 288.699 86.8881 288.655 85.9523C288.612 85.0165 289.641 84.7343 290.161 84.7101C291.206 84.7919 293.247 83.8635 293.045 79.4963C292.99 78.3266 292.258 76.016 289.762 76.1318C286.643 76.2765 287.704 73.8827 289.654 73.7922C291.604 73.7017 292.737 72.8676 292.629 70.528C292.52 68.1885 291.686 67.0549 286.617 67.2901C282.562 67.4783 277.177 68.7702 274.991 69.3926C271.908 70.3172 262.735 71.3681 250.707 68.1749C247.54 67.2798 240.452 67.7911 237.44 76.9966C237.092 77.9246 235.914 79.4902 233.985 78.3293L234.437 88.0774ZM228.643 89.5186L234.492 89.2472L233.931 77.1595L228.082 77.4309L228.643 89.5186Z" stroke="#214384" stroke-width="4"/>
<path d="M163.773 70.527C163.857 71.4616 163.501 73.3123 161.407 73.2387C158.79 73.1468 150.597 72.6843 148.203 81.1593C145.809 89.6343 141.205 101.35 138.31 104.218C135.414 107.086 133.795 108.427 131.928 111.854C130.061 115.282 128.723 118.554 131.465 120.048C133.659 121.243 135.328 119.485 135.888 118.457C136.075 118.114 136.654 117.54 137.477 117.988C138.299 118.436 138.007 119.463 137.758 119.92C137.146 120.772 136.882 122.998 140.721 125.089C141.749 125.65 144.105 126.221 145.3 124.027C146.793 121.285 148.29 123.434 147.356 125.148C146.423 126.862 146.548 128.264 148.605 129.384C150.662 130.504 152.064 130.379 154.491 125.922C156.433 122.357 158.12 117.083 158.721 114.892C159.529 111.776 163.388 103.387 172.355 94.7591C174.762 92.5147 178.001 86.1887 171.691 78.8403C171.078 78.0618 170.35 76.2429 172.343 75.195L163.773 70.527ZM165.546 64.825L162.745 69.9669L173.372 75.7552L176.172 70.6133L165.546 64.825Z" stroke="#214384" stroke-width="4"/>
<path d="M285.137 237.231C284.611 236.454 284.026 234.663 285.892 233.712C288.226 232.524 295.617 228.958 293.604 220.385C291.591 211.811 289.94 199.332 291.083 195.42C292.226 191.508 292.992 189.551 292.964 185.648C292.936 181.744 292.521 178.234 289.398 178.257C286.9 178.275 286.292 180.621 286.3 181.792C286.303 182.182 286.075 182.965 285.138 182.971C284.201 182.978 283.959 181.939 283.956 181.419C284.078 180.377 283.231 178.301 278.859 178.332C277.688 178.341 275.35 178.982 275.368 181.48C275.391 184.603 273.04 183.449 273.026 181.497C273.012 179.545 272.223 178.38 269.881 178.397C267.539 178.414 266.374 179.203 266.41 184.277C266.439 188.336 267.519 193.768 268.056 195.976C268.859 199.093 269.549 208.3 265.887 220.193C264.869 223.324 265.102 230.426 274.182 233.796C275.096 234.18 276.614 235.418 275.379 237.301L285.137 237.231ZM286.35 243.078L286.308 237.223L274.208 237.309L274.25 243.164L286.35 243.078Z" stroke="#214384" stroke-width="4"/>
<path d="M196.294 151.537C196.171 150.606 196.448 148.742 198.543 148.728C201.161 148.709 209.367 148.825 211.401 140.257C213.435 131.688 217.541 119.788 220.313 116.801C223.085 113.814 224.646 112.406 226.367 108.902C228.088 105.399 229.286 102.073 226.483 100.697C224.241 99.5953 222.648 101.422 222.132 102.473C221.959 102.824 221.405 103.421 220.564 103.008C219.723 102.595 219.972 101.557 220.201 101.09C220.777 100.213 220.948 97.9776 217.023 96.0502C215.972 95.534 213.595 95.062 212.493 97.3044C211.117 100.107 209.531 98.0236 210.391 96.2718C211.252 94.52 211.067 93.1247 208.965 92.0922C206.863 91.0597 205.468 91.2441 203.23 95.7989C201.441 99.4427 199.977 104.783 199.469 106.998C198.793 110.145 195.293 118.689 186.698 127.688C184.387 130.032 181.418 136.489 188.032 143.565C188.678 144.317 189.482 146.103 187.534 147.234L196.294 151.537ZM194.763 157.308L197.345 152.053L186.483 146.718L183.902 151.974L194.763 157.308Z" stroke="#214384" stroke-width="4"/>
<path d="M149.509 152.196C148.248 153.117 145.106 154.639 142.624 153.359C139.521 151.758 131.849 147.211 122.078 154.349C114.261 160.06 87.3006 179.755 74.7977 188.888C73.7471 189.656 71.4396 191.438 70.6152 192.427C69.7908 193.416 66.7799 197.324 65.3776 199.154C64.4804 200.131 63.0545 202.591 64.5282 204.608C66.0018 206.626 68.3583 206.322 69.3524 205.918C70.4999 205.724 72.4749 205.957 71.1944 208.44C69.914 210.922 71.1289 213.644 71.8965 214.695C72.5872 215.64 74.6113 217.352 77.1812 216.635C79.7511 215.918 79.3265 217.807 78.793 218.841C78.106 219.665 77.1924 221.944 79.0345 224.466C80.8766 226.987 88.9257 224.33 92.7201 222.686L97.0479 220.008L144.643 185.239C147.738 183.3 153.51 176.731 151.834 165.967C151.564 164.714 151.825 161.719 155.035 159.761L149.509 152.196ZM153.862 147.566L148.818 151.251L155.726 160.706L160.769 157.022L153.862 147.566Z" stroke="#214384" stroke-width="4"/>
<path d="M194.586 73.0142C193.404 74.0344 190.396 75.8061 187.818 74.7311C184.595 73.3873 176.58 69.4773 167.419 77.3839C160.091 83.7092 134.816 105.525 123.095 115.642C122.11 116.492 119.954 118.455 119.213 119.508C118.471 120.56 115.787 124.699 114.538 126.637C113.723 127.684 112.501 130.251 114.133 132.142C115.766 134.034 118.09 133.54 119.048 133.057C120.176 132.771 122.163 132.843 121.088 135.421C120.013 137.999 121.445 140.613 122.295 141.598C123.06 142.485 125.216 144.027 127.72 143.104C130.223 142.181 129.953 144.098 129.505 145.172C128.887 146.049 128.161 148.395 130.202 150.759C132.242 153.123 140.049 149.822 143.698 147.876L147.794 144.855L192.414 106.343C195.342 104.159 200.563 97.1439 198.02 86.551C197.649 85.3244 197.667 82.3183 200.707 80.1062L194.586 73.0142ZM198.549 68.0469L193.821 72.1277L201.473 80.9926L206.2 76.9118L198.549 68.0469Z" stroke="#214384" stroke-width="4"/>
<path d="M89.3495 109.306C90.2235 110.6 91.6289 113.796 90.258 116.229C88.5444 119.271 83.7184 126.771 90.4921 136.798C95.9111 144.82 114.601 172.486 123.268 185.316C123.997 186.395 125.693 188.766 126.651 189.626C127.609 190.487 131.403 193.639 133.18 195.108C134.124 196.04 136.53 197.556 138.6 196.157C140.67 194.759 140.454 192.393 140.087 191.385C139.935 190.231 140.241 188.266 142.674 189.636C145.108 191.007 147.872 189.893 148.951 189.165C149.921 188.509 151.706 186.55 151.084 183.955C150.462 181.361 152.334 181.855 153.348 182.426C154.147 183.143 156.39 184.139 158.978 182.391C161.565 180.643 159.206 172.502 157.703 168.649L155.186 164.226L122.191 115.384C120.367 112.22 114.015 106.21 103.196 107.489C101.935 107.713 98.9514 107.342 97.1125 104.062L89.3495 109.306ZM84.883 104.786L88.3791 109.961L98.0828 103.406L94.5867 98.2308L84.883 104.786Z" stroke="#214384" stroke-width="4"/>
<path d="M183.566 238.349C184.71 238.098 187.234 237.944 188.179 239.336C189.359 241.075 191.256 244.255 200.025 242.332C207.041 240.793 226.588 236.505 235.484 234.553C237.419 234.262 241.137 232.994 240.534 230.248C239.782 226.817 234.992 228.667 237.457 225.329C239.922 221.991 238.276 219.954 236.119 219.228C233.962 218.503 234.306 216.429 236.045 215.248C237.784 214.067 236.864 209.873 233.73 210.161C231.223 210.391 219.722 213.101 214.285 214.427L194.84 218.692C192.298 219.25 186.838 221.567 185.335 226.372C185.121 227.218 184.083 229.045 181.643 229.58L183.566 238.349ZM178.396 240.283L183.734 239.112L181.475 228.817L176.137 229.988L178.396 240.283Z" stroke="#214384" stroke-width="4"/>
<path d="M65.4212 101.541C65.1857 102.688 64.3008 105.057 62.6458 105.355C60.5769 105.727 56.9 106.168 55.0944 114.962C53.6499 121.998 49.6251 141.6 47.7932 150.522C47.2733 152.408 46.9215 156.321 49.6746 156.886C53.1159 157.593 53.3717 152.465 55.4203 156.073C57.4688 159.682 59.9985 159.006 61.5382 157.329C63.0778 155.653 64.8326 156.81 65.2048 158.879C65.5771 160.948 69.7831 161.812 70.7935 158.831C71.6019 156.447 73.7996 144.837 74.7974 139.33L78.8012 119.829C79.3246 117.28 79.4264 111.35 75.6463 108.024C74.96 107.485 73.7132 105.794 74.2156 103.347L65.4212 101.541ZM65.7555 96.031L64.6564 101.384L74.9804 103.504L76.0795 98.1507L65.7555 96.031Z" stroke="#214384" stroke-width="4"/>
<path d="M163.157 125.719C163.307 126.88 163.242 129.408 161.775 130.228C159.94 131.254 156.607 132.868 157.765 141.771C158.69 148.894 161.27 168.739 162.445 177.771C162.567 179.723 163.509 183.537 166.296 183.174C169.78 182.721 168.352 177.79 171.464 180.534C174.576 183.279 176.748 181.816 177.657 179.729C178.567 177.643 180.603 178.165 181.629 180C182.655 181.835 186.913 181.281 186.897 178.134C186.885 175.617 185.181 163.924 184.33 158.393L181.764 138.651C181.428 136.071 179.593 130.431 174.936 128.517C174.111 128.231 172.382 127.039 172.059 124.561L163.157 125.719ZM161.678 120.4L162.382 125.819L172.834 124.461L172.129 119.041L161.678 120.4Z" stroke="#214384" stroke-width="4"/>
<path d="M214.491 75.0159C214.818 76.1402 215.142 78.6479 213.818 79.6842C212.162 80.9796 209.117 83.0865 211.628 91.7062C213.637 98.6019 219.234 117.815 221.782 126.56C222.202 128.47 223.719 132.094 226.417 131.308C229.79 130.325 227.621 125.671 231.118 127.905C234.615 130.139 236.536 128.36 237.114 126.158C237.693 123.957 239.785 124.161 241.08 125.816C242.376 127.472 246.498 126.271 246 123.163C245.601 120.678 242.121 109.386 240.432 104.05L234.864 84.9373C234.136 82.4388 231.456 77.148 226.56 75.9722C225.701 75.8158 223.809 74.9034 223.11 72.5049L214.491 75.0159ZM212.213 69.9875L213.741 75.2343L223.86 72.2865L222.331 67.0398L212.213 69.9875Z" stroke="#214384" stroke-width="4"/>
<path d="M54.6404 186.613C54.7914 187.774 54.7264 190.302 53.2585 191.122C51.4237 192.148 48.0909 193.762 49.2484 202.665C50.1744 209.788 52.7544 229.633 53.9286 238.665C54.0512 240.617 54.9932 244.431 57.7802 244.068C61.264 243.615 59.8355 238.684 62.9478 241.428C66.06 244.173 68.2315 242.71 69.1412 240.623C70.0508 238.537 72.0869 239.059 73.1127 240.894C74.1385 242.729 78.3965 242.175 78.381 239.028C78.3685 236.511 76.6647 224.818 75.8144 219.287L73.2478 199.545C72.9123 196.965 71.0769 191.325 66.4195 189.411C65.595 189.125 63.8655 187.933 63.5434 185.455L54.6404 186.613ZM53.1616 181.294L53.8662 186.713L64.3176 185.355L63.613 179.935L53.1616 181.294Z" stroke="#214384" stroke-width="4"/>
<path d="M133.315 227.625C131.176 226.453 129.331 227.095 128.605 227.38L125.175 218.663C127.5 217.748 128.456 215.274 129.558 212.744C131.541 208.188 133.446 204.502 135.935 200.167C138.738 195.285 144.068 193.472 146.195 193.194C160.108 189.818 188.644 182.953 191.488 182.505C195.043 181.945 197.818 178.337 198.842 176.675C199.661 175.346 202.53 173.966 203.862 173.442L216.212 168.583C219.699 167.211 221.567 170.111 222.065 171.733C222.589 173.065 223.202 175.9 221.458 176.586C219.279 177.443 220.202 180.856 222.744 179.855C225.287 178.855 226.067 181.904 226.925 184.083C227.782 186.262 228.276 188.585 226.46 189.299C224.644 190.014 225.204 193.569 227.746 192.569C229.78 191.768 231.095 194.327 231.498 195.707C233.098 199.775 228.949 202.023 226.674 202.638L215.414 207.069C214.324 207.497 209.537 208.123 206.785 207.527C204.585 207.051 201.803 208.369 200.688 209.087L190.725 214.685C183.937 218.754 168.368 228.012 160.398 232.49C150.435 238.087 135.989 229.089 133.315 227.625Z" stroke="#214384" stroke-width="4"/>
<path d="M124.026 229.602L120.596 220.884L120.31 220.157L124.669 218.442L128.385 227.887L124.026 229.602Z" stroke="#214384" stroke-width="4"/>
<path d="M224.107 174.683C221.671 174.789 220.425 176.294 219.952 176.915L212.501 171.236C214.016 169.249 213.552 166.638 213.183 163.902C212.519 158.978 212.239 154.838 212.122 149.841C211.99 144.213 215.608 139.901 217.284 138.561C227.434 128.465 248.284 107.808 250.485 105.952C253.235 103.631 253.739 99.1067 253.754 97.155C253.767 95.5937 255.505 92.9268 256.373 91.7885L264.418 81.2335C266.69 78.2533 269.79 79.766 271.057 80.8949C272.195 81.7626 274.188 83.8704 273.052 85.3605C271.632 87.2232 274.189 89.6633 275.846 87.4902C277.502 85.3172 279.749 87.5207 281.612 88.9405C283.474 90.3603 285.101 92.0906 283.917 93.6428C282.734 95.195 285.055 97.9456 286.711 95.7725C288.036 94.034 290.487 95.5417 291.546 96.5128C295.023 99.1631 292.639 103.235 291.012 104.94L283.676 114.564C282.966 115.495 279.195 118.511 276.534 119.427C274.404 120.16 272.709 122.728 272.127 123.921L266.506 133.87C262.808 140.868 254.288 156.853 249.792 164.812C244.171 174.761 227.153 174.551 224.107 174.683Z" stroke="#214384" stroke-width="4"/>
<path d="M217.186 181.187L209.736 175.508L209.115 175.035L211.954 171.309L220.026 177.462L217.186 181.187Z" stroke="#214384" stroke-width="4"/>
<path d="M185.065 169.101C185.161 166.664 183.765 165.298 183.185 164.775L189.463 157.821C191.318 159.495 193.958 159.25 196.715 159.109C201.677 158.856 205.826 158.92 210.816 159.218C216.435 159.554 220.432 163.517 221.628 165.299C230.847 176.252 249.702 198.744 251.37 201.091C253.454 204.025 257.921 204.902 259.865 205.079C261.42 205.221 263.933 207.175 264.996 208.134L274.847 217.027C277.628 219.539 275.863 222.503 274.633 223.671C273.674 224.734 271.408 226.545 270.017 225.289C268.279 223.719 265.635 226.065 267.663 227.897C269.691 229.728 267.309 231.784 265.739 233.522C264.17 235.261 262.311 236.738 260.862 235.43C259.413 234.122 256.48 236.206 258.508 238.037C260.13 239.502 258.424 241.819 257.369 242.794C254.439 246.039 250.579 243.325 249.015 241.562L240.033 233.453C239.164 232.668 236.472 228.66 235.78 225.932C235.226 223.749 232.807 221.846 231.667 221.167L222.218 214.74C215.552 210.474 200.329 200.657 192.77 195.516C183.321 189.089 184.944 172.147 185.065 169.101Z" stroke="#214384" stroke-width="4"/>
<path d="M179.157 161.664L185.435 154.71L185.958 154.131L189.435 157.27L182.634 164.803L179.157 161.664Z" stroke="#214384" stroke-width="4"/>
<path d="M165.902 230.328C164.759 230.041 162.139 229.028 160.803 227.27C159.132 225.073 159.624 224.352 156.969 223.597C154.846 222.993 118.672 214.575 100.85 210.442C98.2893 209.962 92.6259 208.928 90.4599 208.633C87.7525 208.265 84.9397 208.67 84.5185 211.764C84.1815 214.239 85.5742 215.584 86.3126 215.948C87.1449 216.586 88.2363 218.022 85.944 218.655C83.6517 219.288 83.0556 221.545 83.0441 222.594L82.7809 224.527C82.5115 225.541 82.5143 227.643 84.6803 227.938C87.3877 228.306 85.472 230.803 84.259 231.032C83.046 231.261 82.1672 231.929 81.8512 234.25C81.5353 236.57 82.485 238.275 85.1925 238.644C87.3584 238.939 93.0569 239.715 95.6355 240.066L154.442 242.162C155.362 242.156 157.476 241.866 158.573 240.755C159.944 239.366 162.862 238.187 164.796 238.451L167.117 238.767L168.222 230.644L165.902 230.328ZM171.705 239.785L172.917 230.889L167.888 230.205L166.677 239.101L171.705 239.785Z" stroke="#214384" stroke-width="4"/>
<path d="M65.4362 89.7229C66.6122 89.7961 69.3729 90.3135 71.0082 91.7973C73.0522 93.6522 72.7001 94.4509 75.4483 94.7083C77.6468 94.9143 114.75 96.5792 133.027 97.3858C135.632 97.3897 141.389 97.3709 143.572 97.2649C146.302 97.1325 148.993 96.2203 148.842 93.1012C148.721 90.6059 147.106 89.5379 146.313 89.3159C145.378 88.8402 144.043 87.6283 146.181 86.5867C148.319 85.545 148.492 83.2178 148.312 82.1844L148.217 80.235C148.297 79.1889 147.91 77.1234 145.727 77.2294C142.997 77.3618 144.425 74.5569 145.575 74.1103C146.726 73.6636 147.468 72.846 147.355 70.5067C147.241 68.1674 145.996 66.6646 143.266 66.797C141.083 66.9029 135.339 67.1817 132.74 67.3078L74.5402 75.9938C73.6368 76.1679 71.6111 76.8393 70.7359 78.1324C69.6419 79.7487 66.9884 81.4406 65.039 81.5352L62.6996 81.6487L63.0969 89.8364L65.4362 89.7229ZM58.002 81.4859L58.4371 90.4533L63.5057 90.2074L63.0706 81.2399L58.002 81.4859Z" stroke="#214384" stroke-width="4"/>
<path d="M283.919 126.212C283.296 127.212 281.531 129.397 279.448 130.132C276.846 131.051 276.31 130.362 274.779 132.659C273.554 134.496 254.481 166.365 245.098 182.07C243.858 184.362 241.142 189.438 240.199 191.41C239.021 193.875 238.546 196.677 241.364 198.024C243.618 199.102 245.324 198.187 245.896 197.595C246.758 196.998 248.459 196.397 248.361 198.774C248.263 201.15 250.229 202.407 251.224 202.739L252.985 203.58C253.868 204.147 255.87 204.787 256.813 202.814C257.991 200.349 259.783 202.937 259.63 204.161C259.477 205.386 259.845 206.427 261.958 207.438C264.071 208.448 265.984 208.065 267.163 205.6C268.106 203.628 270.587 198.439 271.709 196.091L291.683 140.741C291.958 139.863 292.329 137.761 291.606 136.377C290.702 134.647 290.472 131.509 291.314 129.748L292.324 127.635L284.929 124.099L283.919 126.212ZM294.697 123.577L286.597 119.705L284.408 124.283L292.508 128.156L294.697 123.577Z" stroke="#214384" stroke-width="4"/>
<line x1="122.727" y1="67.8071" x2="122.727" y2="246.489" stroke="#31A571" stroke-width="4" stroke-linecap="round" stroke-dasharray="4 8"/>
<line x1="218.752" y1="67.8071" x2="218.752" y2="246.489" stroke="#31A571" stroke-width="4" stroke-linecap="round" stroke-dasharray="4 8"/>
<path d="M45 115.771L294.041 115.771" stroke="#31A571" stroke-width="4" stroke-linecap="round" stroke-dasharray="4 8"/>
<path d="M45 192.279L294.041 192.279" stroke="#31A571" stroke-width="4" stroke-linecap="round" stroke-dasharray="4 8"/>
</g>
<defs>
<clipPath id="clip0">
<rect width="350" height="250" fill="white"/>
</clipPath>
</defs>
</svg>
