<svg width="350" height="250" viewBox="0 0 350 250" fill="none" xmlns="http://www.w3.org/2000/svg">
<g clip-path="url(#clip0)">
<path d="M281.718 145.065C283.957 144.618 289.981 146.273 296.161 156.477C303.886 169.232 312.619 188.7 309.26 203.133C305.902 217.566 302.543 225.958 298.848 229.65C295.153 233.342 288.771 239.048 279.367 230.657C281.83 230.209 286.756 228.979 286.756 227.636C286.756 225.958 281.718 225.622 281.718 222.601C281.718 219.58 282.725 221.259 284.741 221.93C286.756 222.601 291.794 219.916 294.481 221.259C294.929 216.224 295.355 205.147 293.474 201.119C291.123 196.084 288.435 183.665 275 166.547" stroke="#214384" stroke-width="4" stroke-linecap="round"/>
<path d="M250.332 144.23L247.593 139.363L244.854 134.497C238.86 135.707 237.337 133.57 236.004 126.879C233.729 115.454 239.516 116.723 246.118 106.99C246.399 107.272 246.539 107.075 244.854 104.028C242.747 100.219 243.589 98.9496 250.332 95.141C257.074 91.3324 259.181 98.1032 261.288 100.219C263.395 102.335 260.445 103.605 267.188 105.297C273.93 106.99 277.301 111.645 275.194 114.184C273.087 116.723 272.666 118.839 273.087 122.224C273.509 125.61 271.823 126.879 270.137 126.879C268.452 126.879 268.873 127.302 268.873 129.418C268.873 131.111 266.611 132.972 265.488 133.395L266.345 134.497C270.727 139.575 274.07 142.396 274.773 144.23C273.087 147.615 267.188 148.038 259.181 148.461C252.776 148.8 250.613 145.781 250.332 144.23Z" fill="#E2F0F3"/>
<path d="M238.344 147.9C232.968 155.075 216.954 171.964 204.59 178.422C189.135 186.494 180.399 189.521 177.039 189.521C174.351 189.521 173.903 189.073 174.015 188.849M179.055 195.576C191.262 196.473 222.563 195.633 238.959 181.372M246.402 107.496C246.964 108.06 252.607 109.106 254.967 109.106C257.917 109.106 260.867 111.222 260.445 115.03C260.024 118.839 258.338 120.532 257.074 123.494C255.81 126.456 253.703 134.497 257.495 130.688C261.288 126.879 260.445 123.917 264.238 124.34C267.272 124.679 268.212 125.376 268.669 126.879C269.1 128.3 269.21 131.899 263.816 134.073C261.119 134.75 259.321 133.227 258.76 132.381M246.923 144.788L239.868 146.806C239.084 146.918 237.516 147.949 237.516 151.178C237.516 155.214 232.812 167.995 237.516 178.422C242.22 188.849 257.339 209.702 257.675 243H297.657C302.696 226.968 316.774 199.791 303.366 171.695C292.279 148.461 288.137 148.151 285.561 146.806C282.985 145.46 275.751 142.972 267.418 143.779C257.003 144.788 257.339 144.788 246.923 144.788ZM244.854 134.497C238.86 135.707 237.337 133.57 236.004 126.879C233.729 115.454 239.516 116.723 246.118 106.99C246.399 107.272 246.539 107.075 244.854 104.028C242.747 100.219 243.589 98.9496 250.332 95.141C257.074 91.3324 259.181 98.1032 261.288 100.219C263.395 102.335 260.445 103.605 267.188 105.297C273.93 106.99 277.301 111.645 275.194 114.184C273.087 116.723 272.666 118.839 273.087 122.224C273.509 125.61 271.823 126.879 270.137 126.879C268.452 126.879 268.873 127.302 268.873 129.418C268.873 131.111 266.611 132.972 265.488 133.395L266.345 134.497C270.727 139.575 274.07 142.396 274.773 144.23C273.087 147.615 267.188 148.038 259.181 148.461C252.776 148.8 250.613 145.781 250.332 144.23L247.593 139.363L244.854 134.497Z" stroke="#214384" stroke-width="4" stroke-linecap="round"/>
<path d="M285.117 228.925C282.419 229.588 278.37 230.251 275.334 230.915C272.905 231.446 272.298 229.367 272.298 228.261C269.824 217.205 264.742 194.563 264.202 192.44C263.662 190.317 266.226 189.786 267.575 189.786L285.117 186.801M308.057 182.158L319.19 180.168C319.977 179.947 321.619 179.77 321.889 180.831C322.159 181.892 326.724 203.385 328.973 213.999C329.085 214.441 328.906 215.459 327.286 215.989C325.667 216.52 311.318 220.854 304.346 222.955M262.515 192.44C261.166 192.55 258.669 193.236 259.479 195.093C260.289 196.951 266.788 214.441 269.937 222.955M258.13 196.752C257.23 196.752 255.566 197.083 256.105 198.41C256.645 199.737 265.551 217.537 269.937 226.271" stroke="#214384" stroke-width="4" stroke-linecap="round"/>
<path d="M120.441 115.11C129.209 128.91 124.488 135.641 122.127 137.997C120.239 139.882 115.944 139.68 114.033 139.344L108.3 150.787C102.094 152.134 96.4959 146.187 94.4724 143.046L101.555 132.949C105.264 134.295 105.602 130.256 103.241 130.929C100.88 131.602 97.8449 126.89 100.206 124.198C102.566 121.505 103.241 124.871 104.59 126.89C105.939 128.91 107.288 126.554 105.602 124.871C103.915 123.188 104.253 117.803 106.951 118.812C109.109 119.62 117.293 116.569 120.441 115.11ZM120.441 115.11C122.24 114.437 125.769 112.215 125.5 108.715C125.162 104.34 125.162 97.9445 116.731 102.657C108.3 107.369 103.241 102.657 98.1822 109.725C94.9221 110.061 88.8066 112.889 90.4254 121.505C92.0442 130.121 98.0698 132.724 100.88 132.949M90.4254 149.104C94.9408 146.973 105.512 146.412 111.672 161.221C119.373 179.733 137.978 193.196 155.178 191.513C155.965 190.055 158.618 187.138 162.935 187.138C168.331 187.138 167.319 184.782 169.343 184.445C171.366 184.109 174.401 186.465 173.727 187.811C173.052 189.157 176.762 190.167 177.437 193.196C178.111 196.225 177.774 204.303 171.703 203.63C165.633 202.957 164.958 204.64 157.876 198.918C150.906 201.05 133.594 203.63 120.104 196.899C103.241 188.484 85.7038 177.04 85.3666 167.953M117.672 157.634C120.145 159.99 130.761 166.674 142.362 164.25C153.964 161.827 163.384 152.47 166.645 148.095C166.869 146.973 168.466 145.133 173.052 146.748C177.639 148.364 181.259 147.422 182.495 146.748C184.069 145.963 186.88 144.864 185.531 146.748C184.182 148.633 182.945 149.553 182.495 149.778C183.057 150.563 184.721 151.73 186.88 150.114C189.578 148.095 193.625 147.758 191.938 149.104C190.252 150.451 189.578 151.46 191.938 150.787C194.299 150.114 198.684 149.104 196.323 150.787C194.434 152.134 190.14 154.265 188.229 155.163C187.442 155.612 185.328 156.374 183.17 155.836C180.472 155.163 174.739 155.499 171.366 153.143C170.916 153.143 170.017 153.547 170.017 155.163C170.017 157.182 164.284 167.616 157.876 172.665C151.468 177.714 140.002 183.099 130.221 182.426M93.1234 142.373C79.9705 144.841 53.7323 168.222 54.0021 242H90.0881C91.4371 230.669 97.3728 205.044 110.323 193.196C126.511 178.387 122.127 157.519 110.323 149.104C107.4 146.524 99.8685 141.565 93.1234 142.373Z" stroke="#214384" stroke-width="4" stroke-linecap="round"/>
<path d="M42.4732 186.181L40.5573 178.906C43.4312 179.633 45.8261 180.846 52.0529 178.178C57.0343 176.044 62.7501 177.289 64.9854 178.178C64.7459 179.31 63.9316 182.204 62.5905 184.726C60.914 187.878 64.0274 187.393 66.4223 189.818C68.8173 192.244 77.4389 203.156 82.4683 216.736C87.4976 230.317 78.8759 238.562 74.8045 244.624C71.5475 249.474 64.6661 250.202 61.6325 249.959H39.8388C30.9776 249.959 25.9483 238.562 22.8349 234.682C19.7216 230.802 21.1585 226.679 22.8349 215.039C24.1761 205.727 36.4859 191.92 42.4732 186.181Z" fill="#E2F0F3"/>
<path d="M61.6452 186.181C57.8652 183.884 47.8705 184.86 43.1559 185.663M40.5573 178.906L42.4732 186.181C36.4859 191.92 24.1761 205.727 22.8349 215.039C21.1585 226.679 19.7216 230.802 22.8349 234.682C25.9483 238.562 30.9776 249.959 39.8388 249.959C46.9278 249.959 57.3217 249.959 61.6325 249.959C64.6661 250.202 71.5475 249.474 74.8045 244.624C78.8759 238.562 87.4976 230.317 82.4683 216.736C77.4389 203.156 68.8173 192.244 66.4223 189.818C64.0274 187.393 60.914 187.878 62.5905 184.726C63.9316 182.204 64.7459 179.31 64.9854 178.178C62.7501 177.289 57.0343 176.044 52.0529 178.178C45.8261 180.846 43.4312 179.633 40.5573 178.906Z" stroke="#214384" stroke-width="4" stroke-linecap="round"/>
<path d="M43.2453 185L42 180.012C43.522 180.652 47.2302 181.087 51.5472 179.245C56.5061 177.13 61.1908 178.212 63.9629 178.853L64 178.861C63.5849 181.163 62.7547 183.082 61.5094 185C57.1925 183.158 47.673 184.233 43.2453 185Z" fill="#31A571"/>
<path d="M266 191.394L285.787 188C293.701 202.933 293.619 213.879 292.382 219.394C291.97 219.253 290.898 219.139 288.26 219.818C285.976 220.406 285.822 221.023 284.962 220.667C284.55 220.667 282.901 219.394 282.489 219.394C278.688 219.394 279.603 224.061 280.428 224.909C281.252 225.758 283.726 227.455 284.138 227.879L274.244 230L266 191.394Z" fill="#31A571"/>
<path d="M327 214.978L307 221C312.447 203.108 310.83 188.742 309.553 183.151L320.191 181L327 214.978Z" fill="#31A571"/>
</g>
<defs>
<clipPath id="clip0">
<rect width="350" height="250" fill="white"/>
</clipPath>
</defs>
</svg>
