<svg width="350" height="250" viewBox="0 0 350 250" fill="none" xmlns="http://www.w3.org/2000/svg">
<path d="M271.931 144.743C271.931 161.37 267.75 177.024 260.378 190.704C260.351 190.747 260.33 190.795 260.303 190.837C243.9 221.182 211.795 241.798 174.876 241.798C121.277 241.798 77.8218 198.348 77.8218 144.743C77.8218 139.302 78.2685 133.967 79.13 128.765C79.1621 128.558 79.1991 128.345 79.2366 128.138C86.7203 84.7353 123.032 51.1994 167.749 47.9551C170.1 47.7795 172.477 47.6943 174.876 47.6943C204.167 47.6943 230.427 60.6673 248.219 81.1821C262.995 98.2133 271.931 120.436 271.931 144.743Z" stroke="#214384" stroke-width="4"/>
<path d="M277.936 144.742C277.936 162.397 273.497 179.019 265.669 193.546C248.273 225.846 214.137 247.8 174.878 247.8C117.964 247.8 71.8198 201.662 71.8198 144.742C71.8198 138.732 72.3335 132.841 73.3221 127.109C81.2687 81.0212 119.827 45.4109 167.31 41.9658C169.806 41.7794 172.331 41.689 174.878 41.689C205.981 41.689 233.865 55.4644 252.758 77.2484C268.448 95.3334 277.936 118.931 277.936 144.742Z" stroke="#214384" stroke-width="4" stroke-miterlimit="10"/>
<path d="M260.303 190.834C243.9 221.179 211.795 241.795 174.876 241.795C121.277 241.795 77.8218 198.344 77.8218 144.74C77.8218 139.299 78.2685 133.964 79.13 128.762C79.4015 128.815 79.6621 128.89 79.9332 128.975C79.9332 128.975 101.858 114.736 125.767 135.64C149.675 156.538 144.569 214.95 175.094 204.668C205.62 194.382 211.385 189.036 223.315 189.855C235.241 190.68 246.07 193.147 248.059 186.563C249.751 180.978 257.926 188.361 260.303 190.834Z" stroke="#214384" stroke-width="4"/>
<path d="M241.636 144.706C248.822 152.083 246.141 164.391 236.541 168.12C231.753 169.976 227.094 171.497 223.855 171.902C214.079 173.125 204.297 176.795 195.744 157.439C187.186 138.089 175.373 153.573 165.597 144.212C155.815 134.855 183.112 116.09 186.84 79.8314C190.569 43.5722 174.963 72.4964 169.102 71.6824C165.315 71.156 166.421 57.5395 167.682 47.9655C167.719 47.9603 167.751 47.9548 167.788 47.9548C170.091 47.7793 172.479 47.6943 174.878 47.6943C202.829 47.6943 229.37 59.7894 247.721 80.8894C241.407 83.8947 234.988 86.0328 231.19 87.4904C221.818 91.0807 221.818 112.016 220.653 118.127C219.993 121.585 231.514 134.313 241.636 144.706Z" stroke="#214384" stroke-width="4"/>
<path d="M124.865 180.811H116.328V189.348H124.865V180.811Z" stroke="#214384" stroke-width="4"/>
<path d="M112.644 175.059H104.107V189.349H112.644V175.059Z" stroke="#214384" stroke-width="4"/>
<path d="M141.732 53.0176C141.818 52.4307 141.878 51.8351 141.878 51.2244C141.878 44.4731 136.405 39 129.653 39H125.115C118.364 39 112.891 44.4731 112.891 51.2244H105.613C98.8622 51.2244 93.3892 56.6975 93.3892 63.4488C93.3892 70.2 98.8622 75.6732 105.613 75.6732H135.382C142.134 75.6732 147.607 70.2 147.607 63.4488C147.607 59.026 145.25 55.1637 141.732 53.0176Z" fill="#31A571" stroke="#214384" stroke-width="4"/>
<path d="M197.01 64.9121C193.684 64.9121 190.988 67.608 190.988 70.9362C190.988 73.1055 197.01 84.6694 197.01 84.6694C197.01 84.6694 203.034 72.7318 203.034 70.9362C203.034 67.608 200.339 64.9121 197.01 64.9121ZM197.01 73.796C195.18 73.796 193.696 72.3117 193.696 70.4816C193.696 68.6512 195.18 67.1671 197.01 67.1671C198.843 67.1671 200.327 68.6512 200.327 70.4816C200.327 72.3117 198.843 73.796 197.01 73.796Z" fill="#31A571" stroke="#214384" stroke-width="4"/>
<path d="M197.011 87.1464C199.04 87.1464 200.685 86.709 200.685 86.17C200.685 85.6308 199.04 85.1934 197.011 85.1934C194.983 85.1934 193.338 85.6308 193.338 86.17C193.338 86.709 194.983 87.1464 197.011 87.1464Z" fill="#31A571" stroke="#214384" stroke-width="4"/>
<path d="M95.0852 170.073C91.7595 170.073 89.0635 172.769 89.0635 176.097C89.0635 178.267 95.0852 189.83 95.0852 189.83C95.0852 189.83 101.109 177.893 101.109 176.097C101.109 172.769 98.4137 170.073 95.0852 170.073ZM95.0852 178.957C93.255 178.957 91.771 177.473 91.771 175.643C91.771 173.812 93.255 172.328 95.0852 172.328C96.9179 172.328 98.4022 173.812 98.4022 175.643C98.4022 177.473 96.9179 178.957 95.0852 178.957Z" fill="#31A571" stroke="#214384" stroke-width="4"/>
<path d="M95.0866 192.311C97.1156 192.311 98.7601 191.874 98.7601 191.335C98.7601 190.796 97.1156 190.358 95.0866 190.358C93.058 190.358 91.4136 190.796 91.4136 191.335C91.4136 191.874 93.058 192.311 95.0866 192.311Z" fill="#31A571" stroke="#214384" stroke-width="4"/>
<path d="M126.756 93.2793C124.76 93.2793 123.141 94.8982 123.141 96.8966C123.141 98.1994 126.756 105.143 126.756 105.143C126.756 105.143 130.374 97.9748 130.374 96.8966C130.374 94.8982 128.755 93.2793 126.756 93.2793ZM126.756 98.6138C125.658 98.6138 124.766 97.7228 124.766 96.6237C124.766 95.5246 125.658 94.6336 126.756 94.6336C127.857 94.6336 128.748 95.5246 128.748 96.6237C128.748 97.7228 127.857 98.6138 126.756 98.6138Z" fill="#31A571" stroke="#214384" stroke-width="4"/>
<path d="M126.756 106.633C127.974 106.633 128.961 106.371 128.961 106.047C128.961 105.723 127.974 105.46 126.756 105.46C125.538 105.46 124.55 105.723 124.55 106.047C124.55 106.371 125.538 106.633 126.756 106.633Z" fill="#31A571" stroke="#214384" stroke-width="4"/>
<path d="M225.202 207.519L228.805 210.33L232.408 207.519L236.011 210.33L239.616 207.519L243.217 210.33L246.82 207.519L250.424 210.33L254.027 207.519L257.631 210.33L261.233 207.519L264.838 210.33L268.446 207.519L272.054 210.33" stroke="#214384" stroke-width="4" stroke-miterlimit="10" stroke-linecap="round"/>
<path d="M238.957 214.669L242.56 217.48L246.163 214.669L249.767 217.48L253.371 214.669L256.972 217.48L260.575 214.669L264.179 217.48L267.782 214.669L271.386 217.48L274.988 214.669L278.593 217.48L282.201 214.669L285.809 217.48" stroke="#214384" stroke-width="4" stroke-miterlimit="10" stroke-linecap="round"/>
<path d="M190.711 127.751C190.982 127.725 191.147 127.942 191.437 128.294C191.026 126.543 190.193 123.52 190.993 122.783C191.17 122.619 192.68 121.996 193.151 123.528C193.449 120.777 194.201 117.134 196.099 116.988C198.557 116.799 197.805 122.678 197.411 125.01C197.956 124.176 197.997 123.609 198.464 123.431C198.959 123.241 200.113 123.94 199.89 125.002C199.67 126.051 199.585 127.415 199.317 128.56C199.835 127.979 200.09 127.557 200.532 127.594C201.17 127.648 201.554 128.599 201.624 128.773C202.242 130.306 201.49 132.277 200.197 133.486C198.984 134.621 197.468 134.924 196.433 134.988V138.263H195.255V134.972C192.796 134.768 190.006 133.265 189.535 131.051C189.216 129.548 189.987 127.821 190.711 127.751Z" fill="#31A571" stroke="#214384" stroke-width="4"/>
<path d="M188.68 127.274C188.409 127.248 188.243 127.465 187.954 127.817C188.365 126.066 189.197 123.043 188.398 122.305C188.22 122.142 186.71 121.519 186.239 123.051C185.942 120.3 185.189 116.657 183.291 116.511C180.833 116.322 181.586 122.201 181.98 124.533C181.435 123.699 181.393 123.132 180.927 122.953C180.432 122.764 179.278 123.463 179.501 124.525C179.721 125.574 179.807 126.937 180.073 128.083C179.556 127.502 179.301 127.08 178.858 127.117C178.22 127.171 177.837 128.122 177.767 128.296C177.149 129.829 177.901 131.8 179.194 133.009C180.407 134.144 181.923 134.446 182.958 134.511V137.786H184.136V134.495C186.594 134.291 189.385 132.787 189.856 130.574C190.175 129.071 189.404 127.344 188.68 127.274Z" fill="#31A571" stroke="#214384" stroke-width="4"/>
<path d="M194.403 130.94C194.131 130.914 193.966 131.131 193.676 131.483C194.087 129.732 194.92 126.709 194.12 125.971C193.943 125.807 192.432 125.185 191.961 126.717C191.664 123.966 190.912 120.323 189.014 120.177C186.555 119.988 187.308 125.867 187.702 128.199C187.157 127.365 187.116 126.797 186.65 126.619C186.154 126.43 185 127.129 185.223 128.191C185.443 129.24 185.529 130.603 185.796 131.749C185.278 131.168 185.023 130.746 184.581 130.783C183.943 130.836 183.559 131.788 183.489 131.961C182.871 133.494 183.623 135.466 184.916 136.675C186.129 137.809 187.645 138.112 188.68 138.177V141.452H189.858V138.161C192.317 137.957 195.107 136.453 195.578 134.24C195.897 132.737 195.127 131.01 194.403 130.94Z" fill="#31A571" stroke="#214384" stroke-width="4"/>
<path d="M142.663 212.517C142.935 212.491 143.1 212.708 143.39 213.061C142.979 211.31 142.146 208.286 142.946 207.548C143.123 207.385 144.634 206.762 145.105 208.294C145.402 205.543 146.154 201.901 148.052 201.754C150.511 201.565 149.758 207.444 149.364 209.776C149.909 208.942 149.95 208.375 150.416 208.197C150.912 208.007 152.066 208.706 151.843 209.768C151.623 210.817 151.537 212.18 151.27 213.326C151.788 212.745 152.043 212.323 152.485 212.36C153.123 212.414 153.507 213.365 153.577 213.539C154.195 215.072 153.443 217.043 152.15 218.253C150.937 219.387 149.421 219.69 148.386 219.754V223.029H147.208V219.739C144.749 219.534 141.959 218.031 141.488 215.817C141.169 214.314 141.94 212.587 142.663 212.517Z" stroke="#214384" stroke-width="4"/>
<path d="M128.917 208.295C128.647 208.268 128.481 208.485 128.191 208.838C128.602 207.087 129.435 204.063 128.635 203.326C128.458 203.162 126.948 202.54 126.477 204.072C126.179 201.32 125.427 197.678 123.529 197.532C121.071 197.343 121.824 203.221 122.218 205.553C121.672 204.719 121.631 204.152 121.165 203.974C120.669 203.784 119.515 204.483 119.738 205.545C119.959 206.594 120.044 207.958 120.311 209.103C119.793 208.522 119.538 208.101 119.096 208.137C118.458 208.191 118.074 209.142 118.004 209.316C117.386 210.849 118.138 212.82 119.431 214.03C120.644 215.164 122.16 215.467 123.195 215.531V218.807H124.373V215.516C126.832 215.311 129.622 213.808 130.093 211.594C130.413 210.091 129.641 208.364 128.917 208.295Z" stroke="#214384" stroke-width="4"/>
<path d="M140.414 203.34C140.143 203.314 139.977 203.531 139.687 203.883C140.098 202.132 140.931 199.109 140.131 198.371C139.954 198.208 138.444 197.585 137.973 199.117C137.675 196.365 136.923 192.723 135.025 192.577C132.567 192.388 133.32 198.267 133.713 200.599C133.168 199.765 133.127 199.198 132.661 199.019C132.165 198.83 131.012 199.529 131.234 200.59C131.455 201.639 131.54 203.003 131.807 204.149C131.289 203.568 131.034 203.146 130.592 203.183C129.954 203.236 129.571 204.188 129.5 204.361C128.883 205.895 129.635 207.866 130.928 209.075C132.141 210.21 133.656 210.512 134.691 210.577V213.852H135.869V210.561C138.328 210.357 141.118 208.853 141.589 206.64C141.908 205.137 141.138 203.41 140.414 203.34Z" fill="#31A571" stroke="#214384" stroke-width="4"/>
<path d="M215.286 71.1479V69.1479H213.286H204.749H202.749V71.1479V86.6025V88.6025H204.749H213.286H215.286V86.6025V71.1479Z" fill="#E2F0F3" stroke="#214384" stroke-width="4"/>
<path d="M224.475 79.7583H215.938V88.2953H224.475V79.7583Z" stroke="#214384" stroke-width="4"/>
<path d="M212.505 209.52H203.968V218.057H212.505V209.52Z" fill="#31A571" stroke="#214384" stroke-width="4"/>
<path d="M208.371 72.2251H206.129V76.58H208.371V72.2251Z" fill="#214384"/>
<path d="M211.905 72.2256H209.663V76.5802H211.905V72.2256Z" fill="#214384"/>
<path d="M208.37 77.8286H206.128V82.1835H208.37V77.8286Z" fill="#214384"/>
<path d="M211.905 77.8286H209.663V82.1835H211.905V77.8286Z" fill="#214384"/>
<path d="M209.246 190.646V188.646H207.246H198.709H196.709V190.646V218.056V220.056H198.709H207.246H209.246V218.056V190.646Z" fill="#E2F0F3" stroke="#214384" stroke-width="4"/>
<path d="M202.332 203.679H200.09V208.034H202.332V203.679Z" fill="#214384"/>
<path d="M205.866 203.678H203.624V208.033H205.866V203.678Z" fill="#214384"/>
<path d="M202.33 209.282H200.088V213.637H202.33V209.282Z" fill="#214384"/>
<path d="M205.866 209.282H203.624V213.637H205.866V209.282Z" fill="#214384"/>
<path d="M202.33 192.328H200.088V196.683H202.33V192.328Z" fill="#214384"/>
<path d="M205.866 192.329H203.624V196.684H205.866V192.329Z" fill="#214384"/>
<path d="M202.33 197.934H200.088V202.289H202.33V197.934Z" fill="#214384"/>
<path d="M205.866 197.934H203.624V202.289H205.866V197.934Z" fill="#214384"/>
<path d="M121.605 161.938V159.938H119.605H111.068H109.068V161.938V189.348V191.348H111.068H119.605H121.605V189.348V161.938Z" fill="#31A571" stroke="#214384" stroke-width="4"/>
<path d="M114.69 174.972H112.448V179.327H114.69V174.972Z" fill="#214384"/>
<path d="M118.227 174.972H115.985V179.327H118.227V174.972Z" fill="#214384"/>
<path d="M114.69 180.576H112.448V184.93H114.69V180.576Z" fill="#214384"/>
<path d="M118.227 180.576H115.985V184.93H118.227V180.576Z" fill="#214384"/>
<path d="M114.69 163.62H112.448V167.975H114.69V163.62Z" fill="#214384"/>
<path d="M118.225 163.62H115.983V167.975H118.225V163.62Z" fill="#214384"/>
<path d="M114.69 169.223H112.448V173.578H114.69V169.223Z" fill="#214384"/>
<path d="M118.225 169.223H115.983V173.578H118.225V169.223Z" fill="#214384"/>
<path d="M177.866 161.86C170.201 161.86 163.988 168.073 163.988 175.743C163.988 180.742 177.866 207.39 177.866 207.39C177.866 207.39 191.748 179.881 191.748 175.743C191.748 168.073 185.535 161.86 177.866 161.86ZM177.866 182.333C173.647 182.333 170.227 178.912 170.227 174.695C170.227 170.477 173.647 167.056 177.866 167.056C182.089 167.056 185.509 170.477 185.509 174.695C185.509 178.912 182.089 182.333 177.866 182.333Z" fill="#31A571" stroke="#214384" stroke-width="4"/>
<path d="M177.868 213.102C182.543 213.102 186.333 212.095 186.333 210.852C186.333 209.609 182.543 208.602 177.868 208.602C173.192 208.602 169.402 209.609 169.402 210.852C169.402 212.095 173.192 213.102 177.868 213.102Z" fill="#31A571" stroke="#214384" stroke-width="4"/>
<path d="M284.87 171.848H257.625C251.446 171.848 246.437 166.839 246.437 160.66C246.437 154.482 251.446 149.473 257.625 149.473H284.87C291.048 149.473 296.057 154.482 296.057 160.66C296.057 166.839 291.048 171.848 284.87 171.848Z" fill="#31A571" stroke="#214384" stroke-width="4"/>
<path d="M275.414 160.66H271.261C265.082 160.66 260.073 155.651 260.073 149.472C260.073 143.294 265.082 138.285 271.261 138.285H275.414C281.593 138.285 286.602 143.294 286.602 149.472C286.602 155.651 281.593 160.66 275.414 160.66Z" fill="#31A571" stroke="#214384" stroke-width="4"/>
<path d="M81.604 167.376H62.0339C57.297 167.376 53.457 163.537 53.457 158.8C53.457 154.063 57.297 150.223 62.0339 150.223H81.604C86.3409 150.223 90.181 154.063 90.181 158.8C90.181 163.537 86.3409 167.376 81.604 167.376Z" fill="#31A571" stroke="#214384" stroke-width="4"/>
<path d="M73.2361 158.8C68.4992 158.8 64.6592 154.96 64.6592 150.223C64.6592 145.486 68.4992 141.646 73.2361 141.646C77.973 141.646 81.8128 145.486 81.8128 150.223C81.8128 154.96 77.973 158.8 73.2361 158.8Z" fill="#31A571" stroke="#214384" stroke-width="4"/>
<path d="M222.911 119.99H213.251C210.913 119.99 209.018 118.095 209.018 115.757C209.018 113.419 210.913 111.524 213.251 111.524H222.911C225.249 111.524 227.144 113.419 227.144 115.757C227.144 118.095 225.249 119.99 222.911 119.99Z" fill="#31A571" stroke="#214384" stroke-width="4"/>
<path d="M218.781 115.759C216.442 115.759 214.547 113.864 214.547 111.526C214.547 109.188 216.442 107.292 218.781 107.292C221.118 107.292 223.014 109.188 223.014 111.526C223.014 113.864 221.118 115.759 218.781 115.759Z" fill="#31A571" stroke="#214384" stroke-width="4"/>
</svg>
