<svg width="37" height="37" viewBox="0 0 37 37" fill="none" xmlns="http://www.w3.org/2000/svg">
<path d="M29.8159 33.9166H7.18421C4.91796 33.9166 3.08337 32.082 3.08337 29.8158V7.18409C3.08337 4.91784 4.91796 3.08325 7.18421 3.08325H29.8005C32.0821 3.08325 33.9167 4.91784 33.9167 7.18409V29.8003C33.9167 32.082 32.0821 33.9166 29.8159 33.9166Z" stroke="#FBFBFB" stroke-width="1.2" stroke-miterlimit="10" stroke-linecap="round" stroke-linejoin="round"/>
<path d="M26.7701 10.2202C24.7816 8.23074 22.0345 7.00024 19.0115 7.00024C15.9885 7.00024 13.2299 8.23074 11.2529 10.2202C9.26437 12.2097 8.03448 14.9582 8.03448 17.9942C8.03448 20.3977 8.81609 22.6287 10.1264 24.4342L7 30.0002L14.7011 28.0682C15.0575 28.2177 15.4253 28.3672 15.7931 28.4822C16.8161 28.8042 17.8851 28.9652 19.0115 28.9652C22.046 28.9652 24.7931 27.7347 26.7816 25.7452C28.7701 23.7557 30 21.0187 30 17.9942C29.9885 14.9582 28.7586 12.2097 26.7701 10.2202Z" stroke="#FBFBFB" stroke-width="1.2" stroke-miterlimit="10" stroke-linecap="round" stroke-linejoin="round"/>
<path fill-rule="evenodd" clip-rule="evenodd" d="M13.5539 11.2163C13.8422 10.9282 14.3097 10.9282 14.598 11.2163L17.9574 14.573C18.2458 14.8611 18.2458 15.3282 17.9574 15.6163L16.8053 16.7675L20.2294 20.1983L21.3802 19.0485C21.6685 18.7604 22.136 18.7604 22.4243 19.0485L25.7837 22.4052C26.0721 22.6933 26.0721 23.1604 25.7837 23.4485L24.1123 25.1186C24.1119 25.1189 24.1115 25.1193 24.1112 25.1197C23.0373 26.2 21.3417 26.1745 19.7401 25.6417C18.0903 25.0927 16.2817 23.9362 14.6737 22.3296C13.0657 20.7229 11.9082 18.9157 11.3588 17.2656C10.8249 15.662 10.8012 13.9668 11.8803 12.8885L13.5539 11.2163ZM14.076 12.7813L12.9245 13.9318C12.4532 14.4027 12.2817 15.3634 12.76 16.7998C13.2227 18.1898 14.2372 19.8068 15.7178 21.2863C17.1986 22.7658 18.817 23.7794 20.2066 24.2418C21.644 24.72 22.5996 24.5471 23.064 24.0794L23.066 24.0773L24.2175 22.9268L21.9023 20.6135L20.7508 21.764C20.6122 21.9025 20.4242 21.9802 20.2282 21.9801C20.0322 21.9799 19.8443 21.9019 19.7059 21.7633L15.239 17.2877C14.9514 16.9995 14.9517 16.533 15.2397 16.2452L16.3912 15.0946L14.076 12.7813Z" fill="#FBFBFB"/>
</svg>
