<svg width="33" height="34" viewBox="0 0 33 34" fill="none" xmlns="http://www.w3.org/2000/svg">
<path d="M16.5 29.375C14.7633 27.8936 13.1535 26.2696 11.6875 24.5199C9.4875 21.8922 6.875 17.979 6.875 14.25C6.87305 10.3554 9.21834 6.84339 12.8165 5.3529C16.4146 3.86241 20.5563 4.68718 23.309 7.44235C25.1191 9.24444 26.1331 11.6958 26.1251 14.25C26.1251 17.979 23.5125 21.8922 21.3125 24.5199C19.8465 26.2696 18.2367 27.8936 16.5 29.375ZM16.5 10.125C15.0263 10.125 13.6645 10.9112 12.9276 12.1875C12.1908 13.4638 12.1908 15.0362 12.9276 16.3125C13.6645 17.5888 15.0263 18.375 16.5 18.375C18.7782 18.375 20.625 16.5282 20.625 14.25C20.625 11.9718 18.7782 10.125 16.5 10.125Z" fill="#E2F0F3"/>
</svg>
