<svg width="350" height="250" viewBox="0 0 350 250" fill="none" xmlns="http://www.w3.org/2000/svg">
<g clip-path="url(#clip0)">
<path d="M311.924 194.081C309.715 194.081 307.924 192.29 307.924 190.081V187.329C307.924 185.12 306.133 183.329 303.924 183.329H284.167C281.958 183.329 280.167 185.12 280.167 187.329V190.081C280.167 192.29 278.376 194.081 276.167 194.081H269.473C267.264 194.081 265.473 195.871 265.473 198.081V239.603C265.473 241.812 267.264 243.603 269.473 243.603H323.348C325.557 243.603 327.348 241.812 327.348 239.603V198.081C327.348 195.871 325.557 194.081 323.348 194.081H311.924Z" fill="#E2F0F3" stroke="#214384" stroke-width="4"/>
<path d="M22.6987 239.459V116.502C22.6987 114.293 24.4896 112.502 26.6987 112.502H304.024C306.233 112.502 308.024 114.293 308.024 116.502V239.459C308.024 241.669 306.233 243.459 304.024 243.459H26.6987C24.4896 243.459 22.6987 241.669 22.6987 239.459Z" fill="#E2F0F3"/>
<path d="M39.9814 213.328H61.4839M39.9814 219.642H61.4839M39.9814 225.956H61.4839M39.9814 232.271H61.4839M39.9814 238.585H61.4839M85.9335 213.328H107.436M85.9335 219.642H107.436M85.9335 225.956H107.436M85.9335 232.271H107.436M85.9335 238.585H107.436M131.918 213.328H153.421M131.918 219.642H153.421M131.918 225.956H153.421M131.918 232.271H153.421M131.918 238.585H153.421M177.87 213.328H199.373M177.87 219.642H199.373M177.87 225.956H199.373M177.87 232.271H199.373M177.87 238.585H199.373M224.1 213.328H245.603M224.1 219.642H245.603M224.1 225.956H245.603M224.1 232.271H245.603M224.1 238.585H245.603M270.052 213.328H291.555M270.052 219.642H291.555M270.052 225.956H291.555M270.052 232.271H291.555M270.052 238.585H291.555M297.931 216.475V227.692C297.931 227.749 297.976 227.794 298.032 227.794V227.794C298.088 227.794 298.134 227.749 298.134 227.692V216.475C298.134 216.419 298.088 216.373 298.032 216.373V216.373C297.976 216.373 297.931 216.419 297.931 216.475ZM263.855 216.475V227.692C263.855 227.749 263.901 227.794 263.957 227.794V227.794C264.013 227.794 264.058 227.749 264.058 227.692V216.475C264.058 216.419 264.013 216.373 263.957 216.373V216.373C263.901 216.373 263.855 216.419 263.855 216.475ZM301.439 204.384V238.856C301.439 240.736 299.915 242.26 298.035 242.26V242.26C296.155 242.26 294.631 240.736 294.631 238.856V211.237C294.631 209.028 292.84 207.237 290.631 207.237H271.398C269.189 207.237 267.398 209.028 267.398 211.237V238.856C267.398 240.736 265.874 242.26 263.994 242.26V242.26C262.114 242.26 260.59 240.736 260.59 238.856V204.384C260.59 202.175 262.381 200.384 264.59 200.384H297.439C299.649 200.384 301.439 202.175 301.439 204.384ZM255.487 204.384V238.856C255.487 240.736 253.963 242.26 252.083 242.26V242.26C250.203 242.26 248.679 240.736 248.679 238.856V211.237C248.679 209.028 246.888 207.237 244.679 207.237H225.446C223.237 207.237 221.446 209.028 221.446 211.237V238.856C221.446 240.736 219.922 242.26 218.042 242.26V242.26C216.162 242.26 214.638 240.736 214.638 238.856V204.384C214.638 202.175 216.429 200.384 218.638 200.384H251.487C253.696 200.384 255.487 202.175 255.487 204.384ZM209.257 204.384V238.856C209.257 240.736 207.733 242.26 205.853 242.26V242.26C203.973 242.26 202.449 240.736 202.449 238.856V211.237C202.449 209.028 200.658 207.237 198.449 207.237H179.217C177.007 207.237 175.217 209.028 175.217 211.237V238.856C175.217 240.736 173.692 242.26 171.812 242.26V242.26C169.932 242.26 168.408 240.736 168.408 238.856V204.384C168.408 202.175 170.199 200.384 172.408 200.384H205.257C207.467 200.384 209.257 202.175 209.257 204.384ZM159.797 216.475V227.692C159.797 227.749 159.842 227.794 159.898 227.794V227.794C159.954 227.794 160 227.749 160 227.692V216.475C160 216.419 159.954 216.373 159.898 216.373V216.373C159.842 216.373 159.797 216.419 159.797 216.475ZM125.721 216.475V227.692C125.721 227.749 125.767 227.794 125.823 227.794V227.794C125.879 227.794 125.924 227.749 125.924 227.692V216.475C125.924 216.419 125.879 216.373 125.823 216.373V216.373C125.767 216.373 125.721 216.419 125.721 216.475ZM163.305 204.384V238.856C163.305 240.736 161.781 242.26 159.901 242.26V242.26C158.021 242.26 156.497 240.736 156.497 238.856V211.237C156.497 209.028 154.706 207.237 152.497 207.237H133.264C131.055 207.237 129.264 209.028 129.264 211.237V238.856C129.264 240.736 127.74 242.26 125.86 242.26V242.26C123.98 242.26 122.456 240.736 122.456 238.856V204.384C122.456 202.175 124.247 200.384 126.456 200.384H159.305C161.515 200.384 163.305 202.175 163.305 204.384ZM117.321 204.384V238.856C117.321 240.736 115.797 242.26 113.917 242.26V242.26C112.037 242.26 110.513 240.736 110.513 238.856V211.237C110.513 209.028 108.722 207.237 106.513 207.237H87.2797C85.0706 207.237 83.2797 209.028 83.2797 211.237V238.856C83.2797 240.736 81.7557 242.26 79.8756 242.26V242.26C77.9956 242.26 76.4715 240.736 76.4715 238.856V204.384C76.4715 202.175 78.2624 200.384 80.4716 200.384H113.321C115.53 200.384 117.321 202.175 117.321 204.384ZM251.979 216.475V227.692C251.979 227.749 252.024 227.794 252.08 227.794V227.794C252.136 227.794 252.182 227.749 252.182 227.692V216.475C252.182 216.419 252.136 216.373 252.08 216.373V216.373C252.024 216.373 251.979 216.419 251.979 216.475ZM217.903 216.475V227.692C217.903 227.749 217.949 227.794 218.005 227.794V227.794C218.061 227.794 218.106 227.749 218.106 227.692V216.475C218.106 216.419 218.061 216.373 218.005 216.373V216.373C217.949 216.373 217.903 216.419 217.903 216.475ZM67.8599 216.475V227.692C67.8599 227.749 67.9054 227.794 67.9615 227.794V227.794C68.0176 227.794 68.063 227.749 68.063 227.692V216.475C68.063 216.419 68.0176 216.373 67.9615 216.373V216.373C67.9054 216.373 67.8599 216.419 67.8599 216.475ZM71.3686 204.384V238.856C71.3686 240.736 69.8445 242.26 67.9645 242.26V242.26C66.0845 242.26 64.5604 240.736 64.5604 238.856V211.237C64.5604 209.028 62.7695 207.237 60.5604 207.237H41.3276C39.1185 207.237 37.3276 209.028 37.3276 211.237V238.856C37.3276 240.736 35.8036 242.26 33.9235 242.26V242.26C32.0435 242.26 30.5194 240.736 30.5194 238.856V204.384C30.5194 202.175 32.3103 200.384 34.5194 200.384H67.3686C69.5777 200.384 71.3686 202.175 71.3686 204.384ZM205.749 216.475V227.692C205.749 227.749 205.794 227.794 205.85 227.794V227.794C205.906 227.794 205.952 227.749 205.952 227.692V216.475C205.952 216.419 205.906 216.373 205.85 216.373V216.373C205.794 216.373 205.749 216.419 205.749 216.475ZM113.812 216.475V227.692C113.812 227.749 113.857 227.794 113.914 227.794V227.794C113.97 227.794 114.015 227.749 114.015 227.692V216.475C114.015 216.419 113.97 216.373 113.914 216.373V216.373C113.857 216.373 113.812 216.419 113.812 216.475ZM171.673 216.475V227.692C171.673 227.749 171.719 227.794 171.775 227.794V227.794C171.831 227.794 171.876 227.749 171.876 227.692V216.475C171.876 216.419 171.831 216.373 171.775 216.373V216.373C171.719 216.373 171.673 216.419 171.673 216.475ZM79.7365 216.475V227.692C79.7365 227.749 79.7819 227.794 79.838 227.794V227.794C79.8941 227.794 79.9396 227.749 79.9396 227.692V216.475C79.9396 216.419 79.8941 216.373 79.838 216.373V216.373C79.7819 216.373 79.7365 216.419 79.7365 216.475ZM301.835 186.356V186.356C301.835 188.459 300.13 190.163 298.028 190.163H33.9327C31.8303 190.163 30.1258 188.459 30.1258 186.356V186.356C30.1258 184.254 31.8302 182.549 33.9327 182.549H298.028C300.13 182.549 301.835 184.254 301.835 186.356ZM33.7843 216.475V227.692C33.7843 227.749 33.8298 227.794 33.8859 227.794V227.794C33.942 227.794 33.9875 227.749 33.9875 227.692V216.475C33.9875 216.419 33.942 216.373 33.8859 216.373V216.373C33.8298 216.373 33.7843 216.419 33.7843 216.475ZM308.024 116.502V239.459C308.024 241.669 306.233 243.459 304.024 243.459H26.6987C24.4896 243.459 22.6987 241.669 22.6987 239.459V116.502C22.6987 114.293 24.4896 112.502 26.6987 112.502H304.024C306.233 112.502 308.024 114.293 308.024 116.502Z" stroke="#214384" stroke-width="4"/>
<path d="M347.009 246.868C347.009 245.049 345.534 243.574 343.714 243.574H5.29464C3.47506 243.574 2 245.049 2 246.868V246.868C2 248.688 3.47506 250.163 5.29464 250.163H343.714C345.534 250.163 347.009 248.688 347.009 246.868V246.868Z" fill="#214384" stroke="#214384" stroke-width="4"/>
<path d="M55.7193 85.6573C51.3602 85.4092 51.0107 89.1204 55.3767 89.1204H77.2788C82.374 89.1204 85.8478 84.0219 81.6127 81.1891C79.6444 79.8726 77.0184 78.9166 73.5356 78.8862C69.0787 78.8474 66.0942 79.9539 64.1108 81.3213C61.2248 83.311 59.2189 85.8565 55.7193 85.6573V85.6573Z" stroke="#214384" stroke-width="4"/>
<path d="M222.19 86.4946C224.375 90.1536 272.055 91.3303 272.055 84.3766C272.055 79.4769 257.567 78.0227 247.101 77.9451C236.635 77.8676 243.406 81.34 234.146 81.211C224.886 81.082 220.006 82.8357 222.19 86.4946Z" stroke="#214384" stroke-width="4"/>
<path d="M197.09 63.3899C201.132 67.0071 200.271 72.5695 194.846 72.5695H179.931C175.738 72.5695 171.911 67.5994 176.017 66.7498C176.275 66.6965 176.551 66.6617 176.847 66.648C180.853 66.4626 185.852 64.7207 189.484 63.2198C192.484 61.9801 194.67 61.2255 197.09 63.3899V63.3899Z" stroke="#214384" stroke-width="4"/>
<rect x="47.5073" y="145.693" width="10.4373" height="10.4373" rx="3" fill="#31A571" stroke="#214384" stroke-width="2"/>
<rect x="47.5073" y="161.057" width="10.4373" height="10.4373" rx="3" fill="#31A571" stroke="#214384" stroke-width="2"/>
<rect x="62.8711" y="145.693" width="10.4373" height="10.4373" rx="3" fill="#31A571" stroke="#214384" stroke-width="2"/>
<rect x="62.8711" y="161.057" width="10.4373" height="10.4373" rx="3" fill="#31A571" stroke="#214384" stroke-width="2"/>
<rect x="78.2349" y="145.693" width="10.4373" height="10.4373" rx="3" fill="#31A571" stroke="#214384" stroke-width="2"/>
<rect x="78.2349" y="161.057" width="10.4373" height="10.4373" rx="3" fill="#31A571" stroke="#214384" stroke-width="2"/>
<rect x="93.5981" y="145.693" width="10.4373" height="10.4373" rx="3" fill="#31A571" stroke="#214384" stroke-width="2"/>
<rect x="93.5981" y="161.057" width="10.4373" height="10.4373" rx="3" fill="#31A571" stroke="#214384" stroke-width="2"/>
<rect x="108.962" y="145.693" width="10.4373" height="10.4373" rx="3" fill="#31A571" stroke="#214384" stroke-width="2"/>
<rect x="108.962" y="161.057" width="10.4373" height="10.4373" rx="3" fill="#31A571" stroke="#214384" stroke-width="2"/>
<rect x="124.326" y="145.693" width="10.4373" height="10.4373" rx="3" fill="#31A571" stroke="#214384" stroke-width="2"/>
<rect x="124.326" y="161.057" width="10.4373" height="10.4373" rx="3" fill="#31A571" stroke="#214384" stroke-width="2"/>
<rect x="139.689" y="145.693" width="10.4373" height="10.4373" rx="3" fill="#31A571" stroke="#214384" stroke-width="2"/>
<rect x="139.689" y="161.057" width="10.4373" height="10.4373" rx="3" fill="#31A571" stroke="#214384" stroke-width="2"/>
<rect x="184.317" y="145.693" width="10.4373" height="10.4373" rx="3" fill="#31A571" stroke="#214384" stroke-width="2"/>
<rect x="184.317" y="161.057" width="10.4373" height="10.4373" rx="3" fill="#31A571" stroke="#214384" stroke-width="2"/>
<rect x="199.681" y="145.693" width="10.4373" height="10.4373" rx="3" fill="#31A571" stroke="#214384" stroke-width="2"/>
<rect x="199.681" y="161.057" width="10.4373" height="10.4373" rx="3" fill="#31A571" stroke="#214384" stroke-width="2"/>
<rect x="215.044" y="145.693" width="10.4373" height="10.4373" rx="3" fill="#31A571" stroke="#214384" stroke-width="2"/>
<rect x="215.044" y="161.057" width="10.4373" height="10.4373" rx="3" fill="#31A571" stroke="#214384" stroke-width="2"/>
<rect x="230.408" y="145.693" width="10.4373" height="10.4373" rx="3" fill="#31A571" stroke="#214384" stroke-width="2"/>
<rect x="230.408" y="161.057" width="10.4373" height="10.4373" rx="3" fill="#31A571" stroke="#214384" stroke-width="2"/>
<rect x="245.771" y="145.693" width="10.4373" height="10.4373" rx="3" fill="#31A571" stroke="#214384" stroke-width="2"/>
<rect x="245.771" y="161.057" width="10.4373" height="10.4373" rx="3" fill="#31A571" stroke="#214384" stroke-width="2"/>
<rect x="261.135" y="145.693" width="10.4373" height="10.4373" rx="3" fill="#31A571" stroke="#214384" stroke-width="2"/>
<rect x="261.135" y="161.057" width="10.4373" height="10.4373" rx="3" fill="#31A571" stroke="#214384" stroke-width="2"/>
<rect x="276.499" y="145.693" width="10.4373" height="10.4373" rx="3" fill="#31A571" stroke="#214384" stroke-width="2"/>
<rect x="276.499" y="161.057" width="10.4373" height="10.4373" rx="3" fill="#31A571" stroke="#214384" stroke-width="2"/>
<path d="M47.0524 137H50.2744V132.554H51.8404C54.6664 132.554 57.1324 131.15 57.1324 127.964C57.1324 124.652 54.7024 123.608 51.7504 123.608H47.0524V137ZM50.2744 130.016V126.146H51.5884C53.1364 126.146 54.0004 126.614 54.0004 127.964C54.0004 129.278 53.2444 130.016 51.6784 130.016H50.2744ZM64.5358 137.252C68.1898 137.252 70.6738 134.624 70.6738 130.232C70.6738 125.858 68.1898 123.356 64.5358 123.356C60.8818 123.356 58.3978 125.84 58.3978 130.232C58.3978 134.624 60.8818 137.252 64.5358 137.252ZM64.5358 134.48C62.7718 134.48 61.6918 132.842 61.6918 130.232C61.6918 127.64 62.7718 126.11 64.5358 126.11C66.2998 126.11 67.3978 127.64 67.3978 130.232C67.3978 132.842 66.2998 134.48 64.5358 134.48ZM72.7602 137H81.1842V134.3H75.9822V123.608H72.7602V137ZM83.1004 137H86.3224V123.608H83.1004V137ZM88.9934 137H92.0534V132.554C92.0534 130.934 91.7834 129.098 91.6394 127.604H91.7294L93.0434 130.538L96.3554 137H99.6314V123.608H96.5714V128.036C96.5714 129.638 96.8234 131.564 97.0034 132.986H96.9134L95.5994 130.016L92.2694 123.608H88.9934V137ZM102.34 137H106.372C110.278 137 112.978 134.894 112.978 130.232C112.978 125.57 110.278 123.608 106.192 123.608H102.34V137ZM105.562 134.408V126.164H105.994C108.154 126.164 109.684 127.046 109.684 130.232C109.684 133.418 108.154 134.408 105.994 134.408H105.562ZM120.579 137.252C124.233 137.252 126.717 134.624 126.717 130.232C126.717 125.858 124.233 123.356 120.579 123.356C116.925 123.356 114.441 125.84 114.441 130.232C114.441 134.624 116.925 137.252 120.579 137.252ZM120.579 134.48C118.815 134.48 117.735 132.842 117.735 130.232C117.735 127.64 118.815 126.11 120.579 126.11C122.343 126.11 123.441 127.64 123.441 130.232C123.441 132.842 122.343 134.48 120.579 134.48ZM137.88 137.252C141.444 137.252 143.244 135.218 143.244 130.7V123.608H140.148V131.042C140.148 133.58 139.338 134.48 137.88 134.48C136.404 134.48 135.648 133.58 135.648 131.042V123.608H132.444V130.7C132.444 135.218 134.298 137.252 137.88 137.252ZM148.437 137H151.659V126.272H155.295V123.608H144.819V126.272H148.437V137ZM159.102 131.438L159.39 130.304C159.732 128.972 160.092 127.406 160.416 126.002H160.488C160.848 127.37 161.19 128.972 161.55 130.304L161.838 131.438H159.102ZM163.224 137H166.608L162.45 123.608H158.598L154.44 137H157.716L158.49 133.922H162.45L163.224 137ZM167.615 137H170.495V132.41C170.495 131.078 170.243 129.08 170.081 127.766H170.153L171.233 130.97L173.051 135.866H174.815L176.615 130.97L177.731 127.766H177.803C177.641 129.08 177.389 131.078 177.389 132.41V137H180.323V123.608H176.831L174.779 129.386C174.527 130.16 174.311 131.006 174.041 131.834H173.951C173.699 131.006 173.483 130.16 173.213 129.386L171.089 123.608H167.615V137ZM185.97 131.438L186.258 130.304C186.6 128.972 186.96 127.406 187.284 126.002H187.356C187.716 127.37 188.058 128.972 188.418 130.304L188.706 131.438H185.97ZM190.092 137H193.476L189.318 123.608H185.466L181.308 137H184.584L185.358 133.922H189.318L190.092 137Z" fill="#214384"/>
</g>
<defs>
<clipPath id="clip0">
<rect width="350" height="250" fill="white"/>
</clipPath>
</defs>
</svg>
