<svg width="350" height="252" viewBox="0 0 350 252" fill="none" xmlns="http://www.w3.org/2000/svg">
<path d="M213.89 157.06C211.681 157.06 209.89 155.27 209.89 153.06V142.323C209.89 140.114 208.099 138.323 205.89 138.323H179.896C177.687 138.323 175.896 140.114 175.896 142.323V153.06C175.896 155.27 174.105 157.06 171.896 157.06H161.901C159.692 157.06 157.901 158.851 157.901 161.06V239.365C157.901 241.574 159.692 243.365 161.901 243.365H229.678C231.887 243.365 233.678 241.574 233.678 239.365V161.06C233.678 158.851 231.887 157.06 229.678 157.06H213.89Z" fill="#E2F0F3" stroke="#214384" stroke-width="4"/>
<path d="M108.048 203.727H24.2939V241.383H108.048V203.727Z" fill="#E2F0F3" stroke="#214384" stroke-width="4"/>
<path d="M321.42 109.585H250.628V240.392H321.42V109.585Z" fill="#E2F0F3" stroke="#214384" stroke-width="4"/>
<path d="M167.872 132.377H95.0857V243.365H167.872V132.377Z" fill="#E2F0F3" stroke="#214384" stroke-width="4"/>
<path d="M138.957 214.627H107.051V240.392H138.957V214.627Z" fill="#E2F0F3" stroke="#214384" stroke-width="4"/>
<path d="M140.951 236.428H109.045V240.392H140.951V236.428Z" fill="#E2F0F3" stroke="#214384" stroke-width="4"/>
<path d="M140.951 213.636H109.045V215.618H140.951V213.636Z" fill="#E2F0F3" stroke="#214384" stroke-width="4"/>
<path d="M171.86 128.414H91.0974V135.35H171.86V128.414Z" fill="#E2F0F3" stroke="#214384" stroke-width="4"/>
<path d="M324.411 107.604H247.637V115.531H324.411V107.604Z" fill="#E2F0F3" stroke="#214384" stroke-width="4"/>
<path fill-rule="evenodd" clip-rule="evenodd" d="M196.787 212.645V240.392H194.792V212.645H196.787Z" fill="#E2F0F3" stroke="#214384" stroke-width="4"/>
<path fill-rule="evenodd" clip-rule="evenodd" d="M196.787 212.645V240.392H194.792V212.645H196.787Z" stroke="#214384" stroke-width="4"/>
<path d="M195.789 226.518C201.296 226.518 205.76 222.081 205.76 216.609C205.76 211.136 201.296 206.699 195.789 206.699C190.283 206.699 185.819 211.136 185.819 216.609C185.819 222.081 190.283 226.518 195.789 226.518Z" fill="#31A571" stroke="#214384" stroke-width="4"/>
<path d="M195.789 226.518C201.296 226.518 205.76 222.081 205.76 216.609C205.76 211.136 201.296 206.699 195.789 206.699C190.283 206.699 185.819 211.136 185.819 216.609C185.819 222.081 190.283 226.518 195.789 226.518Z" stroke="#214384" stroke-width="4"/>
<path d="M131.977 145.26H107.051V147.242H131.977V145.26Z" fill="#E2F0F3" stroke="#214384" stroke-width="4"/>
<path d="M131.977 168.052H107.051V170.034H131.977V168.052Z" fill="#E2F0F3" stroke="#214384" stroke-width="4"/>
<path d="M312.446 198.771H211.743V240.392H312.446V198.771Z" fill="#E2F0F3" stroke="#214384" stroke-width="4"/>
<path d="M315.438 197.781H208.751L214.079 183.907H310.11L315.438 197.781Z" fill="#E2F0F3" stroke="#214384" stroke-width="4"/>
<path d="M315.438 197.781H208.751L214.079 183.907H310.11L315.438 197.781Z" stroke="#214384" stroke-width="4"/>
<path d="M232.681 218.591H220.716V240.392H232.681V218.591Z" fill="#E2F0F3" stroke="#214384" stroke-width="4"/>
<path d="M229.69 220.573H222.71V230.482H229.69V220.573Z" fill="#E2F0F3" stroke="#214384" stroke-width="4"/>
<path d="M131.977 175.979H107.051V176.97H131.977V175.979Z" fill="#E2F0F3" stroke="#214384" stroke-width="4"/>
<path d="M131.977 198.771H107.051V200.753H131.977V198.771Z" fill="#E2F0F3" stroke="#214384" stroke-width="4"/>
<path d="M128.986 177.961H117.021V197.781H128.986V177.961Z" stroke="#214384" stroke-width="4" stroke-miterlimit="10"/>
<path d="M160.892 177.961H139.954V197.781H160.892V177.961Z" stroke="#214384" stroke-width="4" stroke-miterlimit="10"/>
<path d="M163.883 175.979H137.959V176.97H163.883V175.979Z" fill="#E2F0F3" stroke="#214384" stroke-width="4"/>
<path d="M163.883 198.771H137.959V200.753H163.883V198.771Z" fill="#E2F0F3" stroke="#214384" stroke-width="4"/>
<path d="M117.021 147.242H106.053V168.052H117.021V147.242Z" stroke="#214384" stroke-width="4" stroke-miterlimit="10"/>
<path d="M117.021 177.961H106.053V197.781H117.021V177.961Z" stroke="#214384" stroke-width="4" stroke-miterlimit="10"/>
<path d="M110.042 116.522H48.2236V243.365H110.042V116.522Z" fill="#E2F0F3" stroke="#214384" stroke-width="4"/>
<path d="M86.112 211.654H73.1501V235.437H86.112V211.654Z" stroke="#214384" stroke-width="4"/>
<path d="M88.1062 234.446H70.1589V236.428H88.1062V234.446Z" fill="#E2F0F3" stroke="#214384" stroke-width="4"/>
<path d="M113.033 238.41H45.2324V240.392H113.033V238.41Z" fill="#E2F0F3" stroke="#214384" stroke-width="4"/>
<path d="M113.033 238.41H45.2324V240.392H113.033V238.41Z" stroke="#214384" stroke-width="4"/>
<path d="M115.027 113.549H44.2354V118.504H115.027V113.549Z" fill="#E2F0F3" stroke="#214384" stroke-width="4"/>
<path d="M71.156 124.45H61.1853V142.287H71.156V124.45Z" stroke="#214384" stroke-width="4"/>
<path d="M72.153 142.287H60.1882V143.278H72.153V142.287Z" fill="#E2F0F3" stroke="#214384" stroke-width="4"/>
<path d="M74.1472 143.278H58.1941V144.269H74.1472V143.278Z" fill="#E2F0F3" stroke="#214384" stroke-width="4"/>
<path d="M97.0798 124.45H87.1091V142.287H97.0798V124.45Z" stroke="#214384" stroke-width="4"/>
<path d="M98.0769 142.287H86.1121V143.278H98.0769V142.287Z" fill="#E2F0F3" stroke="#214384" stroke-width="4"/>
<path d="M100.071 143.278H84.1179V144.269H100.071V143.278Z" fill="#E2F0F3" stroke="#214384" stroke-width="4"/>
<path d="M71.156 151.206H61.1853V169.043H71.156V151.206Z" stroke="#214384" stroke-width="4"/>
<path d="M72.153 169.043H60.1882V170.034H72.153V169.043Z" fill="#E2F0F3" stroke="#214384" stroke-width="4"/>
<path d="M74.1472 170.034H58.1941V171.025H74.1472V170.034Z" fill="#E2F0F3" stroke="#214384" stroke-width="4"/>
<path d="M97.0798 151.206H87.1091V169.043H97.0798V151.206Z" stroke="#214384" stroke-width="4"/>
<path d="M98.0769 169.043H86.1121V170.034H98.0769V169.043Z" fill="#E2F0F3" stroke="#214384" stroke-width="4"/>
<path d="M100.071 170.034H84.1179V171.025H100.071V170.034Z" fill="#E2F0F3" stroke="#214384" stroke-width="4"/>
<path d="M71.156 177.961H61.1853V196.79H71.156V177.961Z" stroke="#214384" stroke-width="4"/>
<path d="M72.153 195.799H60.1882V196.79H72.153V195.799Z" fill="#E2F0F3" stroke="#214384" stroke-width="4"/>
<path d="M74.1472 196.79H58.1941V197.781H74.1472V196.79Z" fill="#E2F0F3" stroke="#214384" stroke-width="4"/>
<path d="M97.0798 177.961H87.1091V196.79H97.0798V177.961Z" stroke="#214384" stroke-width="4"/>
<path d="M98.0769 195.799H86.1121V196.79H98.0769V195.799Z" fill="#E2F0F3" stroke="#214384" stroke-width="4"/>
<path d="M100.071 196.79H84.1179V197.781H100.071V196.79Z" fill="#E2F0F3" stroke="#214384" stroke-width="4"/>
<path d="M128.986 147.242H117.021V168.052H128.986V147.242Z" stroke="#214384" stroke-width="4" stroke-miterlimit="10"/>
<path d="M160.892 147.242H139.954V168.052H160.892V147.242Z" stroke="#214384" stroke-width="4" stroke-miterlimit="10"/>
<path d="M163.883 145.26H137.959V147.242H163.883V145.26Z" fill="#E2F0F3" stroke="#214384" stroke-width="4"/>
<path d="M163.883 168.052H137.959V170.034H163.883V168.052Z" fill="#E2F0F3" stroke="#214384" stroke-width="4"/>
<path d="M311.449 126.432H291.508V145.26H311.449V126.432Z" fill="#E2F0F3" stroke="#214384" stroke-width="4"/>
<path d="M312.446 125.44H290.511V126.431H312.446V125.44Z" fill="#E2F0F3" stroke="#214384" stroke-width="4"/>
<path d="M312.446 145.26H290.511V146.251H312.446V145.26Z" fill="#E2F0F3" stroke="#214384" stroke-width="4"/>
<path d="M280.54 126.432H260.599V145.26H280.54V126.432Z" fill="#E2F0F3" stroke="#214384" stroke-width="4"/>
<path d="M281.537 125.44H259.602V126.431H281.537V125.44Z" fill="#E2F0F3" stroke="#214384" stroke-width="4"/>
<path d="M281.537 145.26H259.602V146.251H281.537V145.26Z" fill="#E2F0F3" stroke="#214384" stroke-width="4"/>
<path d="M311.449 158.142H291.508V177.961H311.449V158.142Z" fill="#E2F0F3" stroke="#214384" stroke-width="4"/>
<path d="M312.446 157.151H290.511V158.142H312.446V157.151Z" fill="#E2F0F3" stroke="#214384" stroke-width="4"/>
<path d="M312.446 176.971H290.511V177.962H312.446V176.971Z" fill="#E2F0F3" stroke="#214384" stroke-width="4"/>
<path d="M280.54 158.142H260.599V177.961H280.54V158.142Z" fill="#E2F0F3" stroke="#214384" stroke-width="4"/>
<path d="M281.537 157.151H259.602V158.142H281.537V157.151Z" fill="#E2F0F3" stroke="#214384" stroke-width="4"/>
<path d="M281.537 176.971H259.602V177.962H281.537V176.971Z" fill="#E2F0F3" stroke="#214384" stroke-width="4"/>
<path d="M264.587 95.7119H262.593V110.576H264.587V95.7119Z" fill="#E2F0F3" stroke="#214384" stroke-width="4"/>
<path d="M267.578 104.63H259.602V110.576H267.578V104.63Z" fill="#E2F0F3" stroke="#214384" stroke-width="4"/>
<path d="M83.6191 226.519C83.3437 226.519 83.1208 226.32 83.1208 226.075V222.998C83.1208 222.753 83.3437 222.555 83.6191 222.555C83.8946 222.555 84.1179 222.753 84.1179 222.998V226.075C84.1179 226.32 83.8946 226.519 83.6191 226.519Z" fill="#E2F0F3" stroke="#214384" stroke-width="4"/>
<path d="M123.004 227.509H122.007V230.482H123.004V227.509Z" fill="#E2F0F3" stroke="#214384" stroke-width="4"/>
<path d="M121.01 227.509H120.012V230.482H121.01V227.509Z" fill="#E2F0F3" stroke="#214384" stroke-width="4"/>
<path fill-rule="evenodd" clip-rule="evenodd" d="M87.1091 211.654H71.156V210.663H87.1091V211.654Z" fill="#E2F0F3" stroke="#214384" stroke-width="4"/>
<path d="M219.719 218.591H233.678" stroke="#214384" stroke-width="4" stroke-miterlimit="10" stroke-linecap="round"/>
<path d="M304.47 218.591H241.655V229.491H304.47V218.591Z" fill="#E2F0F3" stroke="#214384" stroke-width="4"/>
<path d="M239.66 229.491H306.464" stroke="#214384" stroke-width="4" stroke-miterlimit="10" stroke-linecap="round"/>
<path d="M239.66 218.591H306.464" stroke="#214384" stroke-width="4" stroke-miterlimit="10" stroke-linecap="round"/>
<path d="M343.699 244.559C343.699 242.349 341.908 240.559 339.699 240.559H11C8.79086 240.559 7 242.349 7 244.559V245.581C7 247.79 8.79086 249.581 11 249.581H339.699C341.908 249.581 343.699 247.79 343.699 245.581V244.559Z" fill="#214384" stroke="#214384" stroke-width="4"/>
<path d="M235.672 238.41H217.725V240.392H235.672V238.41Z" fill="#E2F0F3" stroke="#214384" stroke-width="4"/>
<path d="M167.232 102.619C162.102 103.285 164.868 108.594 170.041 108.594H200.449C205.344 108.594 209.04 104.151 206.715 99.8444C204.301 95.3736 200.113 90.8463 193.037 90.7586C187.243 90.6867 183.481 92.8641 181.06 95.447C177.714 99.0173 172.574 102.088 167.705 102.565C167.547 102.581 167.389 102.598 167.232 102.619Z" stroke="#214384" stroke-width="4"/>
<path d="M64.1547 68.9019C66.8301 75.2785 125.223 77.3291 125.223 65.2107C125.223 56.6718 107.48 54.1374 94.6626 54.0022C81.8453 53.8671 90.1367 59.9186 78.7962 59.6938C67.4557 59.469 61.4793 62.5252 64.1547 68.9019Z" stroke="#214384" stroke-width="4"/>
<path d="M268.739 71.2829C265.75 75.4513 268.531 79.8566 273.66 79.8566H296.869C301.128 79.8566 305.07 76.2423 303.146 72.4423C302.357 70.8852 301.108 69.6667 299.136 69.5368C294.365 69.2226 288.443 66.3427 284.029 63.7787C280.362 61.6482 275.575 62.2532 272.982 65.609C271.62 67.3708 270.127 69.3489 268.739 71.2829Z" stroke="#214384" stroke-width="4"/>
<path fill-rule="evenodd" clip-rule="evenodd" d="M99.0739 177.961H85.115H99.0739Z" fill="#E2F0F3" stroke="#214384" stroke-width="4"/>
<path d="M59.1912 151.206H73.1501" stroke="#214384" stroke-width="4" stroke-miterlimit="10"/>
<path fill-rule="evenodd" clip-rule="evenodd" d="M73.1501 124.449H59.1912V123.458H73.1501V124.449Z" fill="#E2F0F3" stroke="#214384" stroke-width="4"/>
<path fill-rule="evenodd" clip-rule="evenodd" d="M73.1501 177.961H59.1912H73.1501Z" fill="#E2F0F3" stroke="#214384" stroke-width="4"/>
<path fill-rule="evenodd" clip-rule="evenodd" d="M99.0739 151.206H85.115V150.215H99.0739V151.206Z" fill="#E2F0F3" stroke="#214384" stroke-width="4"/>
<path fill-rule="evenodd" clip-rule="evenodd" d="M99.0739 124.449H85.115V123.458H99.0739V124.449Z" fill="#E2F0F3" stroke="#214384" stroke-width="4"/>
<path d="M110.042 125.44V238.41" stroke="#214384" stroke-width="4" stroke-miterlimit="10"/>
<path d="M48.2236 130.396V186.88" stroke="#214384" stroke-width="4" stroke-miterlimit="10"/>
<path d="M100.071 111.567H93.0916V113.549H100.071V111.567Z" fill="#E2F0F3" stroke="#214384" stroke-width="4"/>
<path d="M60.1882 219.582H53.2087V221.564H60.1882V219.582Z" fill="#E2F0F3" stroke="#214384" stroke-width="4"/>
<path fill-rule="evenodd" clip-rule="evenodd" d="M42.2412 213.636V240.392H40.2471V213.636H42.2412Z" fill="#E2F0F3" stroke="#214384" stroke-width="4"/>
<path fill-rule="evenodd" clip-rule="evenodd" d="M42.2412 213.636V240.392H40.2471V213.636H42.2412Z" stroke="#214384" stroke-width="4"/>
<path d="M41.2441 228.5C47.3014 228.5 52.2119 223.62 52.2119 217.6C52.2119 211.58 47.3014 206.699 41.2441 206.699C35.1868 206.699 30.2764 211.58 30.2764 217.6C30.2764 223.62 35.1868 228.5 41.2441 228.5Z" fill="#E2F0F3" stroke="#214384" stroke-width="4"/>
<path d="M41.2441 228.5C47.3014 228.5 52.2119 223.62 52.2119 217.6C52.2119 211.58 47.3014 206.699 41.2441 206.699C35.1868 206.699 30.2764 211.58 30.2764 217.6C30.2764 223.62 35.1868 228.5 41.2441 228.5Z" fill="#31A571" stroke="#214384" stroke-width="4"/>
<path fill-rule="evenodd" clip-rule="evenodd" d="M182.828 212.645V240.392H180.833V212.645H182.828Z" fill="#E2F0F3" stroke="#214384" stroke-width="4"/>
<path d="M181.83 226.518C187.337 226.518 191.801 222.081 191.801 216.609C191.801 211.136 187.337 206.699 181.83 206.699C176.324 206.699 171.86 211.136 171.86 216.609C171.86 222.081 176.324 226.518 181.83 226.518Z" fill="#31A571" stroke="#214384" stroke-width="4"/>
</svg>
