<svg width="37" height="37" viewBox="0 0 37 37" fill="none" xmlns="http://www.w3.org/2000/svg">
<path d="M29.8159 33.9166H7.18421C4.91796 33.9166 3.08337 32.082 3.08337 29.8158V7.18409C3.08337 4.91784 4.91796 3.08325 7.18421 3.08325H29.8005C32.0821 3.08325 33.9167 4.91784 33.9167 7.18409V29.8003C33.9167 32.082 32.0821 33.9166 29.8159 33.9166Z" stroke="#FBFBFB" stroke-width="1.2" stroke-miterlimit="10" stroke-linecap="round" stroke-linejoin="round"/>
<path fill-rule="evenodd" clip-rule="evenodd" d="M18.5 13.2584C15.6038 13.2584 13.2583 15.6039 13.2583 18.5001C13.2583 21.3963 15.6038 23.7418 18.5 23.7418C21.3962 23.7418 23.7417 21.3963 23.7417 18.5001C23.7417 15.6039 21.3962 13.2584 18.5 13.2584ZM11.4083 18.5001C11.4083 14.5822 14.582 11.4084 18.5 11.4084C22.4179 11.4084 25.5917 14.5822 25.5917 18.5001C25.5917 22.4181 22.4179 25.5918 18.5 25.5918C14.582 25.5918 11.4083 22.4181 11.4083 18.5001Z" fill="#FBFBFB"/>
<path fill-rule="evenodd" clip-rule="evenodd" d="M28.6276 8.58606C28.6603 8.55332 28.675 8.51156 28.675 8.47928C28.675 8.447 28.6603 8.40524 28.6276 8.3725C28.5948 8.33976 28.5531 8.32511 28.5208 8.32511C28.4885 8.32511 28.4467 8.33976 28.414 8.3725C28.3813 8.40524 28.3666 8.447 28.3666 8.47928C28.3666 8.51156 28.3813 8.55332 28.414 8.58606C28.4467 8.6188 28.4885 8.63345 28.5208 8.63345C28.5531 8.63345 28.5948 8.6188 28.6276 8.58606ZM26.825 8.47928C26.825 7.53675 27.5783 6.78345 28.5208 6.78345C29.4633 6.78345 30.2166 7.53675 30.2166 8.47928C30.2166 9.42181 29.4633 10.1751 28.5208 10.1751C27.5783 10.1751 26.825 9.42181 26.825 8.47928Z" fill="#FBFBFB"/>
</svg>
