<svg width="37" height="37" viewBox="0 0 37 37" fill="none" xmlns="http://www.w3.org/2000/svg">
<path d="M29.8159 33.9166H7.18421C4.91796 33.9166 3.08337 32.082 3.08337 29.8158V7.18409C3.08337 4.91784 4.91796 3.08325 7.18421 3.08325H29.8005C32.0821 3.08325 33.9167 4.91784 33.9167 7.18409V29.8003C33.9167 32.082 32.0821 33.9166 29.8159 33.9166Z" stroke="#FBFBFB" stroke-width="1.2" stroke-miterlimit="10" stroke-linecap="round" stroke-linejoin="round"/>
<path fill-rule="evenodd" clip-rule="evenodd" d="M20.5414 10.5124C19.9273 10.8656 19.425 11.5655 19.425 12.8729V27.75C19.425 28.2609 19.0108 28.675 18.5 28.675C17.9891 28.675 17.575 28.2609 17.575 27.75V12.8729C17.575 11.0199 18.3368 9.64628 19.619 8.90878C20.8504 8.20046 22.395 8.17551 23.8264 8.6119C24.315 8.76088 24.5904 9.27778 24.4414 9.76644C24.2924 10.2551 23.7755 10.5305 23.2869 10.3815C22.1899 10.047 21.2062 10.13 20.5414 10.5124Z" fill="#FBFBFB"/>
<path fill-rule="evenodd" clip-rule="evenodd" d="M13.7208 16.9584C13.7208 16.4476 14.135 16.0334 14.6458 16.0334H22.3542C22.865 16.0334 23.2792 16.4476 23.2792 16.9584C23.2792 17.4693 22.865 17.8834 22.3542 17.8834H14.6458C14.135 17.8834 13.7208 17.4693 13.7208 16.9584Z" fill="#FBFBFB"/>
</svg>
