<svg width="30" height="32" viewBox="0 0 30 32" fill="none" xmlns="http://www.w3.org/2000/svg">
<path d="M15.0015 31.1008C6.72017 31.0915 0.00909446 24.2218 0 15.7448V15.4376C0.164914 6.99877 6.95257 0.278069 15.1975 0.390051C23.4425 0.502034 30.0536 7.40471 29.9997 15.8451C29.9458 24.2855 23.2472 31.0991 15.0015 31.1008ZM15.0015 3.45991C8.37342 3.45991 3.0003 8.96003 3.0003 15.7448C3.0003 22.5295 8.37342 28.0296 15.0015 28.0296C21.6296 28.0296 27.0027 22.5295 27.0027 15.7448C26.9953 8.96319 21.6265 3.46753 15.0015 3.45991ZM15.0015 23.4228L12.8863 21.2576L16.7567 17.2804H7.50075V14.2092H16.7567L12.8863 10.2319L15.0015 8.06673L22.5022 15.7448L15.0015 23.4228Z" fill="#214384"/>
</svg>
