<svg width="121" height="92" viewBox="0 0 121 92" fill="none" xmlns="http://www.w3.org/2000/svg">
<path fill-rule="evenodd" clip-rule="evenodd" d="M38.3375 88.5471C38.609 88.5471 38.8178 88.4947 38.9637 88.3909C39.1095 88.2867 39.1822 88.1268 39.1822 87.911C39.1822 87.7026 39.1185 87.549 38.9903 87.4494C38.862 87.3501 38.6832 87.3003 38.4534 87.3003H37.5782V88.5471H38.3375ZM39.5549 90.3395H39.1684L38.5388 88.857H37.5782V90.3395H37.2172V86.9949H38.4811C38.7154 86.9949 38.9127 87.0297 39.0724 87.1002C39.2321 87.1702 39.3525 87.2718 39.4335 87.404C39.5144 87.537 39.5549 87.697 39.5549 87.8851C39.5549 88.0676 39.5216 88.2189 39.4544 88.3399C39.3873 88.4613 39.3026 88.5573 39.201 88.6292C39.099 88.7008 38.994 88.7543 38.886 88.7895L39.5549 90.3395Z" fill="#1A1919"/>
<path fill-rule="evenodd" clip-rule="evenodd" d="M40.5875 88.9701H41.9763C41.9763 88.8221 41.9516 88.6887 41.9021 88.5703C41.853 88.4512 41.778 88.3571 41.6779 88.2878C41.5774 88.2185 41.4499 88.1837 41.2958 88.1837C41.1323 88.1837 40.9985 88.2226 40.8942 88.3006C40.79 88.3785 40.7124 88.4778 40.6614 88.5981C40.6108 88.7179 40.586 88.8423 40.5875 88.9701ZM40.5853 89.2271C40.5853 89.3875 40.6111 89.5332 40.664 89.6643C40.7161 89.7951 40.7975 89.9 40.907 89.9787C41.0165 90.0574 41.1556 90.0967 41.3235 90.0967C41.4855 90.0967 41.6254 90.0585 41.7427 89.9821C41.8597 89.906 41.9332 89.7977 41.9624 89.6572H42.3096C42.2804 89.8176 42.2166 89.9517 42.1188 90.0596C42.0206 90.1675 41.9024 90.2488 41.7645 90.3039C41.6265 90.3586 41.481 90.3856 41.3284 90.3856C41.1091 90.3856 40.9156 90.3376 40.7484 90.2413C40.5808 90.145 40.4503 90.006 40.3573 89.8236C40.2636 89.6419 40.2171 89.4227 40.2171 89.1668C40.2171 88.9124 40.2595 88.6898 40.3446 88.4995C40.4293 88.3088 40.5523 88.1619 40.7135 88.0574C40.8747 87.9536 41.0697 87.9016 41.298 87.9016C41.5189 87.9016 41.7056 87.9488 41.8582 88.0435C42.0112 88.1387 42.1274 88.2743 42.2076 88.4497C42.2879 88.6254 42.3284 88.8356 42.3284 89.0791V89.2271H40.5853Z" fill="#1A1919"/>
<path fill-rule="evenodd" clip-rule="evenodd" d="M44.0642 87.9017C44.2291 87.9017 44.3791 87.9325 44.5133 87.9943C44.6476 88.0557 44.7586 88.1441 44.8467 88.2588C44.9344 88.3738 44.991 88.5124 45.0158 88.6743H44.6847C44.6689 88.5848 44.6344 88.5042 44.5805 88.4326C44.5265 88.3611 44.4556 88.3041 44.3686 88.2625C44.2813 88.221 44.1808 88.2 44.0664 88.2C43.8489 88.2 43.672 88.2775 43.5351 88.4326C43.3986 88.5874 43.3304 88.826 43.3304 89.1482C43.3304 89.4367 43.3923 89.6675 43.5167 89.8414C43.6409 90.0148 43.8257 90.1014 44.0713 90.1014C44.1853 90.1014 44.2861 90.08 44.3731 90.0377C44.4605 89.9954 44.531 89.9384 44.585 89.8665C44.6389 89.7949 44.6731 89.7159 44.6869 89.6293H45.0131C44.9903 89.7867 44.9336 89.9223 44.8444 90.0355C44.7548 90.1486 44.6431 90.2355 44.5096 90.2958C44.3765 90.3558 44.2276 90.3858 44.0642 90.3858C43.8512 90.3858 43.663 90.3397 43.4995 90.2471C43.3357 90.1546 43.2082 90.0167 43.1163 89.8328C43.0245 89.6496 42.9783 89.4221 42.9783 89.1509C42.9783 88.9025 43.0203 88.6848 43.1036 88.4975C43.1868 88.3101 43.309 88.1636 43.4706 88.0591C43.6319 87.9542 43.8298 87.9017 44.0642 87.9017Z" fill="#1A1919"/>
<path fill-rule="evenodd" clip-rule="evenodd" d="M45.9831 91.1028C45.8489 91.1028 45.7338 91.0852 45.6382 91.0496V90.814L45.8838 90.8158C45.9685 90.8192 46.0398 90.8132 46.0979 90.7979C46.1556 90.7825 46.2021 90.7611 46.2377 90.7342C46.2733 90.7068 46.3015 90.6768 46.3225 90.6435C46.3431 90.6109 46.3603 90.5779 46.3742 90.5457L46.4694 90.2936L45.534 87.9478H45.8999L46.643 89.8724L47.3768 87.9478H47.7307L46.7124 90.5641C46.655 90.7031 46.5909 90.8113 46.5189 90.8889C46.4473 90.9668 46.3667 91.0219 46.2771 91.0541C46.1875 91.0867 46.0896 91.1028 45.9831 91.1028Z" fill="#1A1919"/>
<path fill-rule="evenodd" clip-rule="evenodd" d="M49.2586 87.9017C49.4236 87.9017 49.5735 87.9325 49.7078 87.9943C49.842 88.0557 49.953 88.1441 50.0411 88.2588C50.1288 88.3738 50.1854 88.5124 50.2102 88.6743H49.8791C49.8634 88.5848 49.8289 88.5042 49.7749 88.4326C49.7209 88.3611 49.65 88.3041 49.563 88.2625C49.4757 88.221 49.3752 88.2 49.2608 88.2C49.0434 88.2 48.8664 88.2775 48.7295 88.4326C48.5931 88.5874 48.5248 88.826 48.5248 89.1482C48.5248 89.4367 48.5867 89.6675 48.7112 89.8414C48.8353 90.0148 49.0201 90.1014 49.2657 90.1014C49.3797 90.1014 49.4806 90.08 49.5675 90.0377C49.6549 89.9954 49.7254 89.9384 49.7794 89.8665C49.8334 89.7949 49.8675 89.7159 49.8814 89.6293H50.2076C50.1847 89.7867 50.1281 89.9223 50.0388 90.0355C49.9492 90.1486 49.8375 90.2355 49.704 90.2958C49.5709 90.3558 49.4221 90.3858 49.2586 90.3858C49.0456 90.3858 48.8574 90.3397 48.6939 90.2471C48.5301 90.1546 48.4026 90.0167 48.3107 89.8328C48.2189 89.6496 48.1728 89.4221 48.1728 89.1509C48.1728 88.9025 48.2148 88.6848 48.298 88.4975C48.3812 88.3101 48.5035 88.1636 48.6651 88.0591C48.8263 87.9542 49.0243 87.9017 49.2586 87.9017Z" fill="#1A1919"/>
<path fill-rule="evenodd" clip-rule="evenodd" d="M51.5665 90.3652C51.4521 90.3652 51.3584 90.3484 51.2853 90.3154C51.2118 90.2821 51.1548 90.2364 51.1139 90.1775C51.073 90.1191 51.0449 90.052 51.0292 89.9763C51.0138 89.901 51.0063 89.8216 51.0063 89.738V86.9026H51.3629V89.7081C51.3629 89.8392 51.3872 89.9355 51.4367 89.9962C51.4862 90.0573 51.5507 90.0899 51.6313 90.0944L51.7656 90.0966V90.3326C51.7314 90.3431 51.6969 90.3517 51.6613 90.357C51.6257 90.3622 51.5942 90.3652 51.5665 90.3652Z" fill="#1A1919"/>
<path fill-rule="evenodd" clip-rule="evenodd" d="M52.5996 90.3398H53.1155V87.9479H52.5996V90.3398ZM52.5685 87.3949H53.1185V86.997H52.5685V87.3949Z" fill="#1A1919"/>
<path fill-rule="evenodd" clip-rule="evenodd" d="M53.9459 90.3396V87.9478H54.2931V88.2973C54.3332 88.2276 54.3883 88.1636 54.4588 88.1051C54.5289 88.0467 54.6144 87.9995 54.7157 87.9639C54.8165 87.9283 54.9305 87.911 55.0569 87.911C55.2113 87.911 55.3519 87.9414 55.4794 88.0025C55.6069 88.0631 55.7081 88.1576 55.7839 88.2857C55.8596 88.4135 55.8975 88.5779 55.8975 88.7784V90.3396H55.536V88.8106C55.536 88.6072 55.4847 88.4569 55.3812 88.3595C55.2777 88.2625 55.1412 88.2138 54.9714 88.2138C54.8555 88.2138 54.7468 88.2325 54.6448 88.2696C54.5432 88.3063 54.4615 88.3629 54.3996 88.4382C54.3377 88.5139 54.307 88.6087 54.307 88.7229V90.3396H53.9459Z" fill="#1A1919"/>
<path fill-rule="evenodd" clip-rule="evenodd" d="M57.7746 89.1692C57.9583 89.1692 58.1068 89.1276 58.22 89.0444C58.3336 88.9608 58.3902 88.8361 58.3902 88.6697C58.3902 88.4985 58.3336 88.3689 58.22 88.2808C58.1068 88.1932 57.9583 88.1489 57.7746 88.1489C57.5864 88.1489 57.4349 88.1935 57.3198 88.2823C57.2047 88.3707 57.1473 88.5 57.1473 88.6697C57.1473 88.8286 57.2017 88.9515 57.3104 89.0384C57.4191 89.1257 57.574 89.1692 57.7746 89.1692ZM57.8323 90.8832C58.0625 90.8832 58.2414 90.8473 58.3696 90.7757C58.4975 90.7042 58.5616 90.5948 58.5616 90.4483C58.5616 90.3467 58.5237 90.2628 58.4483 90.1972C58.3726 90.1317 58.2586 90.0938 58.1056 90.0826L57.3996 90.0387C57.3426 90.0358 57.28 90.0515 57.2122 90.0863C57.1443 90.1212 57.0862 90.1699 57.0374 90.2332C56.9887 90.2965 56.9643 90.3681 56.9643 90.4483C56.9643 90.5839 57.0352 90.6907 57.1762 90.7678C57.3175 90.8447 57.5361 90.8832 57.8323 90.8832ZM57.7656 91.1305C57.4026 91.1305 57.1184 91.0766 56.9122 90.9675C56.7064 90.8589 56.6033 90.6997 56.6033 90.4898C56.6033 90.4022 56.6231 90.3269 56.6625 90.2647C56.7019 90.2021 56.7487 90.15 56.8035 90.1084C56.8582 90.0668 56.9096 90.0331 56.9576 90.0077C57.0052 89.9822 57.0371 89.9634 57.0524 89.9511C57.0247 89.9342 56.9924 89.9144 56.955 89.8923C56.9182 89.8698 56.886 89.8406 56.8593 89.8038C56.832 89.7679 56.8185 89.7214 56.8185 89.6641C56.8185 89.5918 56.8526 89.5251 56.9205 89.464C56.9883 89.4033 57.0896 89.3572 57.2238 89.3265C57.0877 89.2553 56.9808 89.1624 56.9032 89.0478C56.8252 88.9327 56.7862 88.8069 56.7862 88.6697C56.7862 88.5154 56.826 88.3812 56.9055 88.2673C56.9849 88.1531 57.1004 88.065 57.2515 88.0036C57.4026 87.9418 57.5864 87.911 57.8023 87.911C57.9549 87.911 58.0846 87.929 58.1911 87.9654C58.298 88.0017 58.3966 88.0542 58.4877 88.1238C58.5106 88.113 58.5481 88.0969 58.5998 88.0751C58.6516 88.0534 58.7089 88.0302 58.7723 88.0047C58.8357 87.9788 58.8945 87.9549 58.9493 87.9316C59.004 87.9088 59.0456 87.8908 59.073 87.8784V88.2396L58.6519 88.3224C58.6782 88.3752 58.6988 88.4318 58.7145 88.4925C58.7299 88.5532 58.7374 88.612 58.7374 88.6671C58.7374 88.8091 58.7022 88.9369 58.6309 89.0504C58.5601 89.1632 58.4525 89.2527 58.3081 89.3175C58.1638 89.382 57.9823 89.4142 57.7629 89.4142H57.7052C57.682 89.4142 57.6621 89.4134 57.6448 89.4119C57.4615 89.4168 57.3351 89.437 57.2665 89.4734C57.1979 89.5097 57.1634 89.5479 57.1634 89.5877C57.1634 89.6341 57.1983 89.6667 57.2677 89.6862C57.337 89.7057 57.4581 89.7214 57.631 89.7338C57.6943 89.7368 57.7704 89.7405 57.8593 89.745C57.9478 89.7499 58.0472 89.7559 58.1566 89.7637C58.3958 89.7776 58.5822 89.8391 58.7157 89.9488C58.8492 90.0582 58.9159 90.2092 58.9159 90.4022C58.9159 90.6161 58.8214 90.7914 58.6324 90.9271C58.4431 91.0631 58.1544 91.1305 57.7656 91.1305Z" fill="#1A1919"/>
<path fill-rule="evenodd" clip-rule="evenodd" d="M62.4297 87.9478V88.2187H61.8279V90.3397H61.4668V88.2187H60.9434V87.9478H61.4668V87.5683C61.4668 87.3802 61.5129 87.2375 61.6059 87.1408C61.6981 87.0434 61.8395 86.9951 62.0292 86.9951H62.4529V87.2584H62.0847C61.9831 87.2584 61.9141 87.2858 61.8774 87.3409C61.841 87.3952 61.8234 87.4776 61.8234 87.587V87.9478H62.4297Z" fill="#1A1919"/>
<path fill-rule="evenodd" clip-rule="evenodd" d="M64.0751 90.0945C64.2247 90.0945 64.3526 90.0574 64.4583 89.9832C64.5641 89.9094 64.6451 89.8015 64.7013 89.6595C64.7575 89.5179 64.786 89.3459 64.786 89.1439C64.786 88.9619 64.7613 88.7992 64.7118 88.6557C64.6623 88.5123 64.5851 88.3995 64.4805 88.3167C64.3755 88.2343 64.2401 88.193 64.0751 88.193C63.9225 88.193 63.7924 88.2294 63.6852 88.3032C63.578 88.3763 63.4959 88.4838 63.4389 88.6254C63.3815 88.7674 63.353 88.9401 63.353 89.1439C63.353 89.3256 63.3781 89.4883 63.428 89.6306C63.4782 89.7734 63.5566 89.8861 63.6631 89.9693C63.7699 90.0529 63.9072 90.0945 64.0751 90.0945ZM64.0729 90.3856C63.8569 90.3856 63.6672 90.3391 63.5049 90.2458C63.3418 90.1525 63.2158 90.0143 63.1262 89.8307C63.0366 89.6475 62.9919 89.4212 62.9919 89.1529C62.9919 88.903 63.0332 88.6842 63.1157 88.4958C63.1982 88.3077 63.3196 88.1619 63.4805 88.0574C63.641 87.9536 63.8389 87.9016 64.0751 87.9016C64.2911 87.9016 64.479 87.9488 64.6391 88.0435C64.7988 88.1387 64.9229 88.2788 65.0114 88.4647C65.1002 88.6505 65.1449 88.8802 65.1449 89.1529C65.1449 89.3968 65.1044 89.6111 65.0241 89.7959C64.9439 89.9809 64.8247 90.1256 64.6664 90.2297C64.5082 90.3339 64.3106 90.3856 64.0729 90.3856Z" fill="#1A1919"/>
<path fill-rule="evenodd" clip-rule="evenodd" d="M65.9202 90.3396V87.9477H66.2625V88.3805C66.303 88.2681 66.3596 88.1767 66.4327 88.1062C66.5059 88.0362 66.5883 87.9845 66.6802 87.9515C66.7721 87.9181 66.8654 87.9017 66.9592 87.9017C66.9978 87.9017 67.036 87.9043 67.0728 87.9099C67.1099 87.9152 67.1391 87.9241 67.1609 87.9365V88.2876C67.1361 88.2756 67.1031 88.2673 67.0623 88.2625C67.0218 88.2576 66.9873 88.2557 66.9592 88.2557C66.8744 88.2509 66.7919 88.2568 66.7117 88.2741C66.6311 88.2909 66.5583 88.3209 66.4927 88.3644C66.4275 88.4075 66.3757 88.4652 66.3379 88.5375C66.3 88.6102 66.2813 88.699 66.2813 88.8035V90.3396H65.9202Z" fill="#1A1919"/>
<path fill-rule="evenodd" clip-rule="evenodd" d="M69.2416 86.9951H71.2741V87.3162H69.6165V88.4937H71.1189V88.8152H69.6165V90.3397H69.2416V86.9951Z" fill="#1A1919"/>
<path fill-rule="evenodd" clip-rule="evenodd" d="M72.8943 90.3857C72.7661 90.3842 72.6465 90.3662 72.5355 90.3314C72.4241 90.2969 72.3267 90.2452 72.2427 90.1763C72.1583 90.1081 72.0927 90.0223 72.0458 89.92C71.9986 89.817 71.9753 89.6982 71.9753 89.5626V87.9478H72.3364V89.53C72.3364 89.6982 72.387 89.8342 72.4894 89.9384C72.591 90.0425 72.7473 90.0946 72.9592 90.0946C73.1474 90.0946 73.2985 90.0455 73.4129 89.9474C73.5268 89.8496 73.5842 89.7012 73.5842 89.5023V87.9478H73.943V90.3396H73.6513L73.6142 89.8863C73.5865 90.0006 73.5381 90.0946 73.4695 90.1684C73.4009 90.2422 73.3176 90.2977 73.2194 90.3336C73.1212 90.37 73.0128 90.3876 72.8943 90.3857Z" fill="#1A1919"/>
<path fill-rule="evenodd" clip-rule="evenodd" d="M76.0212 88.2186H75.4798V89.7615C75.4798 89.8536 75.4885 89.9214 75.5065 89.9638C75.5241 90.0061 75.5559 90.0331 75.6013 90.0447C75.6467 90.0563 75.7104 90.0619 75.7922 90.0619H76.0377V90.3118C76.0081 90.3227 75.9646 90.3317 75.9065 90.3384C75.8488 90.3456 75.7798 90.3489 75.6999 90.3489C75.5466 90.3489 75.4285 90.3272 75.3441 90.2841C75.2601 90.2407 75.2009 90.177 75.1675 90.0923C75.1334 90.0072 75.1161 89.9008 75.1161 89.7727V88.2186H74.7273V87.9477H75.1255L75.2114 87.2583H75.4798V87.9455H76.0212V88.2186Z" fill="#1A1919"/>
<path fill-rule="evenodd" clip-rule="evenodd" d="M77.7089 90.3857C77.5806 90.3842 77.461 90.3662 77.35 90.3314C77.2387 90.2969 77.1412 90.2452 77.0572 90.1763C76.9729 90.1081 76.9072 90.0223 76.8604 89.92C76.8131 89.817 76.7899 89.6982 76.7899 89.5626V87.9478H77.151V89.53C77.151 89.6982 77.2016 89.8342 77.3039 89.9384C77.4055 90.0425 77.5619 90.0946 77.7737 90.0946C77.962 90.0946 78.1131 90.0455 78.2274 89.9474C78.3414 89.8496 78.3988 89.7012 78.3988 89.5023V87.9478H78.7576V90.3396H78.4659L78.4288 89.8863C78.401 90.0006 78.3526 90.0946 78.284 90.1684C78.2154 90.2422 78.1322 90.2977 78.0339 90.3336C77.9357 90.37 77.8273 90.3876 77.7089 90.3857Z" fill="#1A1919"/>
<path fill-rule="evenodd" clip-rule="evenodd" d="M79.6788 90.3396V87.9477H80.0211V88.3805C80.0616 88.2681 80.1182 88.1767 80.1913 88.1062C80.2644 88.0362 80.3469 87.9845 80.4388 87.9515C80.5306 87.9181 80.624 87.9017 80.7177 87.9017C80.7563 87.9017 80.7946 87.9043 80.8313 87.9099C80.8684 87.9152 80.8977 87.9241 80.9194 87.9365V88.2876C80.8947 88.2756 80.8617 88.2673 80.8208 88.2625C80.7803 88.2576 80.7458 88.2557 80.7177 88.2557C80.633 88.2509 80.5505 88.2568 80.4703 88.2741C80.3896 88.2909 80.3169 88.3209 80.2513 88.3644C80.1861 88.4075 80.1343 88.4652 80.0964 88.5375C80.0586 88.6102 80.0398 88.699 80.0398 88.8035V90.3396H79.6788Z" fill="#1A1919"/>
<path fill-rule="evenodd" clip-rule="evenodd" d="M81.8153 88.9701H83.204C83.204 88.8221 83.1797 88.6887 83.1302 88.5703C83.0807 88.4512 83.0061 88.3571 82.9056 88.2878C82.8055 88.2185 82.678 88.1837 82.5239 88.1837C82.36 88.1837 82.2262 88.2226 82.122 88.3006C82.0177 88.3785 81.9405 88.4778 81.8895 88.5981C81.8385 88.7179 81.8138 88.8423 81.8153 88.9701ZM81.813 89.2271C81.813 89.3875 81.8393 89.5332 81.8917 89.6643C81.9442 89.7951 82.0252 89.9 82.1351 89.9787C82.2446 90.0574 82.3833 90.0967 82.5516 90.0967C82.7136 90.0967 82.8535 90.0585 82.9704 89.9821C83.0878 89.906 83.1609 89.7977 83.1905 89.6572H83.5377C83.5085 89.8176 83.4447 89.9517 83.3465 90.0596C83.2487 90.1675 83.1305 90.2488 82.9926 90.3039C82.8542 90.3586 82.7091 90.3856 82.5561 90.3856C82.3372 90.3856 82.1437 90.3376 81.9765 90.2413C81.8085 90.145 81.6784 90.006 81.585 89.8236C81.4917 89.6419 81.4452 89.4227 81.4452 89.1668C81.4452 88.9124 81.4876 88.6898 81.5727 88.4995C81.657 88.3088 81.78 88.1619 81.9416 88.0574C82.1028 87.9536 82.2974 87.9016 82.5261 87.9016C82.7466 87.9016 82.9333 87.9488 83.0863 88.0435C83.2389 88.1387 83.3551 88.2743 83.4358 88.4497C83.516 88.6254 83.5561 88.8356 83.5561 89.0791V89.2271H81.813Z" fill="#1A1919"/>
<path fill-rule="evenodd" clip-rule="evenodd" d="M1.71691 73.1497C2.14884 73.2512 2.60027 73.3018 3.07082 73.3018C3.46488 73.3018 3.87206 73.2576 4.29125 73.1688C4.71118 73.0796 5.0955 72.9178 5.44494 72.6828C5.79476 72.4479 6.08084 72.1238 6.30318 71.7106C6.52552 71.2981 6.63725 70.7676 6.63725 70.1198C6.63725 69.5735 6.56076 69.1291 6.40816 68.7856C6.25556 68.4428 6.0426 68.176 5.76926 67.9853C5.49593 67.7946 5.16186 67.6646 4.76817 67.5949C4.37411 67.5248 3.92905 67.49 3.43338 67.49H1.71691V73.1497ZM0.153028 71.7207C0.153028 70.8818 0.137281 70.0598 0.105411 69.2524C0.0735407 68.4458 0.0386712 67.6234 0.000427246 66.7849C0.306004 66.8103 0.61383 66.8325 0.925406 66.8512C1.23698 66.8703 1.54518 66.88 1.85038 66.88C2.00299 66.88 2.18708 66.874 2.4038 66.8609C2.61976 66.8486 2.83873 66.8388 3.06144 66.8325C3.28378 66.8265 3.49675 66.8167 3.70034 66.804C3.90356 66.7909 4.07528 66.7849 4.21513 66.7849C4.40598 66.7849 4.64107 66.7909 4.92077 66.804C5.2001 66.8167 5.49593 66.8546 5.80751 66.9179C6.11908 66.9816 6.42728 67.0771 6.73249 67.2037C7.03731 67.3311 7.31402 67.5155 7.56185 67.7564C7.81007 67.998 8.01028 68.3 8.16251 68.6616C8.31549 69.0239 8.3916 69.472 8.3916 70.0051C8.3916 70.844 8.2105 71.5233 7.84831 72.0444C7.48574 72.5652 7.04069 72.9717 6.51315 73.2639C5.98523 73.5562 5.42619 73.7533 4.83491 73.8548C4.24363 73.9563 3.71946 74.0073 3.26166 74.0073C2.96921 74.0073 2.70187 74.0039 2.46079 73.9975C2.21895 73.9912 1.97112 73.9754 1.71691 73.95V74.9979C1.71691 75.8364 1.73265 76.6621 1.76452 77.4752C1.79602 78.2886 1.83126 79.0889 1.86951 79.876C1.57705 79.8509 1.26548 79.8386 0.935154 79.8386C0.604457 79.8386 0.292881 79.8509 0.000427246 79.876C0.0386712 79.0889 0.0735407 78.2886 0.105411 77.4752C0.137281 76.6621 0.153028 75.8364 0.153028 74.9979V71.7207Z" fill="#1A1919"/>
<path fill-rule="evenodd" clip-rule="evenodd" d="M10.3748 75.379C10.3748 75.9129 10.4224 76.4273 10.518 76.9226C10.6132 77.4179 10.7752 77.8597 11.0043 78.2471C11.233 78.6348 11.5382 78.9428 11.9195 79.171C12.3008 79.3999 12.7714 79.5145 13.3308 79.5145C13.8898 79.5145 14.3604 79.3999 14.7417 79.171C15.1234 78.9428 15.4286 78.6348 15.6573 78.2471C15.886 77.8597 16.0484 77.4179 16.1436 76.9226C16.2388 76.4273 16.2865 75.9129 16.2865 75.379C16.2865 74.8455 16.2388 74.3311 16.1436 73.8358C16.0484 73.3404 15.886 72.8987 15.6573 72.5113C15.4286 72.1239 15.1234 71.8156 14.7417 71.587C14.3604 71.3585 13.8898 71.2442 13.3308 71.2442C12.7714 71.2442 12.3008 71.3585 11.9195 71.587C11.5382 71.8156 11.233 72.1239 11.0043 72.5113C10.7752 72.8987 10.6132 73.3404 10.518 73.8358C10.4224 74.3311 10.3748 74.8455 10.3748 75.379ZM8.69653 75.379C8.69653 74.515 8.83301 73.7814 9.10672 73.1782C9.38005 72.575 9.73887 72.0857 10.1839 71.7107C10.629 71.336 11.128 71.0629 11.6811 70.8913C12.2341 70.7197 12.7838 70.6342 13.3308 70.6342C13.8898 70.6342 14.4429 70.7197 14.9899 70.8913C15.5362 71.0629 16.0319 71.336 16.4773 71.7107C16.922 72.0857 17.2812 72.575 17.5549 73.1782C17.8278 73.7814 17.9647 74.515 17.9647 75.379C17.9647 76.2433 17.8278 76.9769 17.5549 77.5802C17.2812 78.1834 16.922 78.673 16.4773 79.0477C16.0319 79.4224 15.5362 79.6858 14.9899 79.8383C14.4429 79.9911 13.8898 80.0668 13.3308 80.0668C12.7838 80.0668 12.2341 79.9911 11.6811 79.8383C11.128 79.6858 10.629 79.4224 10.1839 79.0477C9.73887 78.673 9.38005 78.1834 9.10672 77.5802C8.83301 76.9769 8.69653 76.2433 8.69653 75.379Z" fill="#1A1919"/>
<path fill-rule="evenodd" clip-rule="evenodd" d="M20.5681 69.586C20.5614 69.0783 20.552 68.5763 20.5393 68.0802C20.5265 67.5849 20.5108 67.1117 20.4917 66.6606C20.4729 66.2099 20.4504 65.8258 20.4249 65.5078C20.7807 65.5714 21.0668 65.6033 21.2832 65.6033C21.4991 65.6033 21.7852 65.5714 22.1414 65.5078C22.1155 65.8258 22.0934 66.2099 22.0747 66.6606C22.0555 67.1117 22.0394 67.5849 22.027 68.0802C22.0139 68.5763 22.0045 69.0783 21.9982 69.586C21.9918 70.094 21.9888 70.5642 21.9888 70.9962V74.4454C21.9888 74.8774 21.9918 75.3476 21.9982 75.8552C22.0045 76.364 22.0139 76.8657 22.027 77.361C22.0394 77.8563 22.0555 78.3265 22.0747 78.7713C22.0934 79.216 22.1155 79.5843 22.1414 79.8761C21.8486 79.8507 21.5625 79.8383 21.2832 79.8383C21.0034 79.8383 20.7174 79.8507 20.4249 79.8761C20.4504 79.5843 20.4729 79.216 20.4917 78.7713C20.5108 78.3265 20.5265 77.8563 20.5393 77.361C20.552 76.8657 20.5614 76.364 20.5681 75.8552C20.5745 75.3476 20.5775 74.8774 20.5775 74.4454V70.9962C20.5775 70.5642 20.5745 70.094 20.5681 69.586Z" fill="#1A1919"/>
<path fill-rule="evenodd" clip-rule="evenodd" d="M25.879 74.3882C25.879 73.8168 25.8696 73.2162 25.8501 72.5872C25.8314 71.9589 25.7897 71.371 25.7264 70.8248C26.0822 70.8881 26.3683 70.9199 26.5846 70.9199C26.8006 70.9199 27.0867 70.8881 27.4425 70.8248C27.3791 71.371 27.3379 71.9589 27.3187 72.5872C27.2996 73.2162 27.2902 73.8168 27.2902 74.3882V76.3698C27.2902 76.9415 27.2996 77.5417 27.3187 78.1712C27.3379 78.7995 27.3791 79.3682 27.4425 79.8759C27.15 79.8508 26.8639 79.8384 26.5846 79.8384C26.3049 79.8384 26.0188 79.8508 25.7264 79.8759C25.7897 79.3682 25.8314 78.7995 25.8501 78.1712C25.8696 77.5417 25.879 76.9415 25.879 76.3698V74.3882ZM25.612 67.509C25.612 67.2422 25.7072 67.0133 25.8981 66.8233C26.0889 66.6326 26.3177 66.5371 26.5846 66.5371C26.8516 66.5371 27.0807 66.6326 27.2711 66.8233C27.462 67.0133 27.5572 67.2422 27.5572 67.509C27.5572 67.7757 27.462 68.0043 27.2711 68.195C27.0807 68.3857 26.8516 68.4805 26.5846 68.4805C26.3177 68.4805 26.0889 68.3857 25.8981 68.195C25.7072 68.0043 25.612 67.7757 25.612 67.509Z" fill="#1A1919"/>
<path fill-rule="evenodd" clip-rule="evenodd" d="M36.3486 72.359C35.9796 71.8697 35.4712 71.625 34.823 71.625C33.9328 71.625 33.2812 71.8985 32.8684 72.4448C32.4548 72.9911 32.2482 73.7591 32.2482 74.7505V76.3698C32.2482 76.9415 32.258 77.5417 32.2771 78.1712C32.2959 78.7995 32.3371 79.3682 32.4008 79.8759C32.1084 79.8508 31.8223 79.8384 31.543 79.8384C31.2629 79.8384 30.9772 79.8508 30.6847 79.8759C30.7481 79.3682 30.7893 78.7995 30.8088 78.1712C30.8276 77.5417 30.8373 76.9415 30.8373 76.3698V74.3882C30.8373 73.8168 30.8276 73.2162 30.8088 72.5872C30.7893 71.9589 30.7481 71.371 30.6847 70.8248C31.0406 70.8881 31.3266 70.9199 31.543 70.9199C31.6446 70.9199 31.7556 70.9106 31.8767 70.8915C31.9974 70.8723 32.1403 70.8502 32.3056 70.8248C32.2677 71.3328 32.2482 71.8412 32.2482 72.3493H32.2865C32.6423 71.8034 33.0686 71.3808 33.5643 71.0822C34.06 70.7835 34.6516 70.6341 35.3378 70.6341C35.6936 70.6341 36.0531 70.685 36.4153 70.7865C36.7775 70.8881 37.1048 71.063 37.3973 71.3107C37.6898 71.558 37.9282 71.8952 38.1127 72.3204C38.2968 72.7464 38.389 73.2897 38.389 73.9498C38.389 74.4961 38.3763 75.0585 38.3511 75.6362C38.3253 76.2143 38.3129 76.8276 38.3129 77.4751V78.7141C38.3129 78.9171 38.3159 79.1176 38.3223 79.3139C38.3287 79.5114 38.338 79.6987 38.3511 79.8759C38.0966 79.8508 37.8296 79.8384 37.5503 79.8384C37.2829 79.8384 37.0224 79.8508 36.7681 79.8759C36.7933 79.2161 36.8221 78.5365 36.854 77.8374C36.8855 77.139 36.9016 76.4207 36.9016 75.6838V74.5216C36.9016 73.5688 36.7172 72.8479 36.3486 72.359Z" fill="#1A1919"/>
<path fill-rule="evenodd" clip-rule="evenodd" d="M42.3178 75.5506C42.3178 76.3131 42.3969 76.9418 42.5559 77.4371C42.7149 77.9328 42.9184 78.3303 43.1663 78.6281C43.4141 78.9271 43.6968 79.1336 44.0148 79.2474C44.3327 79.3617 44.6443 79.419 44.9495 79.419C45.4452 79.419 45.8711 79.295 46.2269 79.0478C46.5827 78.7997 46.8786 78.476 47.114 78.0755C47.3487 77.6757 47.5205 77.2213 47.6288 76.7132C47.7368 76.2052 47.7908 75.6971 47.7908 75.1883C47.7908 73.9688 47.5553 73.0385 47.0852 72.3967C46.6146 71.7557 45.9221 71.4346 45.0065 71.4346C44.5487 71.4346 44.1513 71.5391 43.8149 71.7489C43.4779 71.9587 43.1978 72.251 42.9754 72.6253C42.7531 73.0003 42.5877 73.4387 42.4798 73.9403C42.3718 74.4428 42.3178 74.9789 42.3178 75.5506ZM47.7334 78.0661C47.6318 78.2696 47.4953 78.4888 47.3236 78.7233C47.1523 78.959 46.9356 79.1781 46.6754 79.3808C46.4144 79.5843 46.1062 79.7495 45.7504 79.8761C45.3942 80.0031 44.981 80.0668 44.5108 80.0668C44.0275 80.0668 43.554 79.984 43.0902 79.8196C42.626 79.654 42.2128 79.3842 41.8502 79.0092C41.488 78.6349 41.1956 78.1519 40.9733 77.5611C40.7505 76.9706 40.6396 76.2621 40.6396 75.4364C40.6396 74.6233 40.7603 73.9186 41.0017 73.3214C41.2432 72.7238 41.5578 72.2251 41.9459 71.8253C42.3335 71.4248 42.7722 71.1262 43.2619 70.9295C43.7508 70.7328 44.2439 70.6343 44.7395 70.6343C46.1508 70.6343 47.1294 71.2693 47.6764 72.5398H47.7147V70.6721C47.7147 70.1896 47.7113 69.7036 47.7049 69.2147C47.6986 68.7254 47.6922 68.2585 47.6858 67.8138C47.6794 67.3695 47.6731 66.9498 47.6671 66.5561C47.6603 66.1623 47.6509 65.8127 47.6382 65.5078C47.7908 65.534 47.9367 65.5553 48.0769 65.5748C48.2167 65.5939 48.3562 65.6033 48.4964 65.6033C48.6363 65.6033 48.7728 65.5939 48.9066 65.5748C49.0397 65.5553 49.1893 65.534 49.3547 65.5078C49.3164 65.915 49.2846 66.5021 49.2594 67.2709C49.2336 68.0394 49.2114 68.8876 49.1923 69.8149C49.1736 70.7422 49.1571 71.695 49.1447 72.6728C49.132 73.6518 49.1256 74.5469 49.1256 75.3599C49.1256 76.2366 49.132 77.0246 49.1447 77.7233C49.1571 78.4217 49.1702 79.1395 49.183 79.8761C48.9284 79.851 48.6805 79.8383 48.4391 79.8383C48.2104 79.8383 47.9689 79.851 47.7147 79.8761L47.7717 78.0661H47.7334Z" fill="#1A1919"/>
<path fill-rule="evenodd" clip-rule="evenodd" d="M52.7872 75.379C52.7872 75.9129 52.8348 76.4273 52.93 76.9226C53.0256 77.4179 53.1876 77.8597 53.4167 78.2471C53.6454 78.6348 53.9502 78.9428 54.3319 79.171C54.7133 79.3999 55.1834 79.5145 55.7428 79.5145C56.3023 79.5145 56.7728 79.3999 57.1541 79.171C57.5358 78.9428 57.8406 78.6348 58.0697 78.2471C58.2984 77.8597 58.4604 77.4179 58.556 76.9226C58.6513 76.4273 58.6989 75.9129 58.6989 75.379C58.6989 74.8455 58.6513 74.3311 58.556 73.8358C58.4604 73.3404 58.2984 72.8987 58.0697 72.5113C57.8406 72.1239 57.5358 71.8156 57.1541 71.587C56.7728 71.3585 56.3023 71.2442 55.7428 71.2442C55.1834 71.2442 54.7133 71.3585 54.3319 71.587C53.9502 71.8156 53.6454 72.1239 53.4167 72.5113C53.1876 72.8987 53.0256 73.3404 52.93 73.8358C52.8348 74.3311 52.7872 74.8455 52.7872 75.379ZM51.1089 75.379C51.1089 74.515 51.2454 73.7814 51.5191 73.1782C51.7921 72.575 52.1513 72.0857 52.5963 71.7107C53.0414 71.336 53.5404 71.0629 54.0935 70.8913C54.6465 70.7197 55.1962 70.6342 55.7428 70.6342C56.3023 70.6342 56.8553 70.7197 57.402 70.8913C57.9486 71.0629 58.4443 71.336 58.8893 71.7107C59.3344 72.0857 59.6936 72.575 59.9669 73.1782C60.2403 73.7814 60.3771 74.515 60.3771 75.379C60.3771 76.2433 60.2403 76.9769 59.9669 77.5802C59.6936 78.1834 59.3344 78.673 58.8893 79.0477C58.4443 79.4224 57.9486 79.6858 57.402 79.8383C56.8553 79.9911 56.3023 80.0668 55.7428 80.0668C55.1962 80.0668 54.6465 79.9911 54.0935 79.8383C53.5404 79.6858 53.0414 79.4224 52.5963 79.0477C52.1513 78.673 51.7921 78.1834 51.5191 77.5802C51.2454 76.9769 51.1089 76.2433 51.1089 75.379Z" fill="#1A1919"/>
<path fill-rule="evenodd" clip-rule="evenodd" d="M78.1504 72.9781C78.1504 71.1744 78.1441 69.7829 78.1313 68.8043C78.1186 67.8264 78.0867 67.1532 78.0361 66.7849C78.1759 66.8103 78.3094 66.8325 78.4369 66.8512C78.5636 66.8703 78.6907 66.88 78.8182 66.88C78.9832 66.88 79.1736 66.8486 79.3904 66.7849C79.3521 67.2296 79.3142 67.7597 79.276 68.3761C79.2374 68.9924 79.2055 69.6526 79.1808 70.3577C79.1549 71.0632 79.129 71.787 79.1043 72.5303C79.0784 73.2737 79.0593 73.9949 79.0469 74.6929C79.0342 75.5445 78.9041 76.3066 78.6562 76.9799C78.408 77.6535 78.0552 78.2252 77.5978 78.6951C77.14 79.1653 76.5776 79.5208 75.9098 79.7617C75.2424 80.003 74.4764 80.124 73.6121 80.124C71.7052 80.124 70.3187 79.6924 69.4548 78.8281C68.5898 77.9649 68.1579 76.5988 68.1579 74.7315C68.1579 74.1339 68.1736 73.6038 68.2055 73.1399C68.237 72.6761 68.2535 72.2036 68.2535 71.7207C68.2535 70.6533 68.24 69.7073 68.2153 68.8807C68.1894 68.055 68.1643 67.3566 68.1388 66.7849C68.291 66.8103 68.4567 66.8325 68.6344 66.8512C68.8125 66.8703 68.9775 66.88 69.1305 66.88C69.27 66.88 69.4068 66.8703 69.5403 66.8512C69.6741 66.8325 69.8106 66.8103 69.9505 66.7849C69.925 67.0647 69.8995 67.4293 69.874 67.8808C69.8485 68.3319 69.823 68.8429 69.7983 69.4143C69.772 69.9864 69.7533 70.6027 69.7405 71.2629C69.7278 71.9238 69.7218 72.6098 69.7218 73.3213C69.7218 73.7533 69.7278 74.2014 69.7405 74.6648C69.7533 75.1283 69.7983 75.579 69.874 76.0174C69.9505 76.4557 70.0746 76.875 70.2463 77.2755C70.4177 77.6756 70.6625 78.0248 70.9801 78.3234C71.298 78.6216 71.6981 78.8569 72.1814 79.0282C72.6647 79.1998 73.262 79.2855 73.974 79.2855C74.6732 79.2855 75.2615 79.184 75.7384 78.9806C76.215 78.7775 76.606 78.5111 76.9109 78.1803C77.2165 77.8502 77.4549 77.4692 77.6266 77.0372C77.798 76.6056 77.9221 76.1545 77.9982 75.6839C78.0743 75.2144 78.1186 74.7442 78.1313 74.2737C78.1441 73.8042 78.1504 73.3722 78.1504 72.9781Z" fill="#1A1919"/>
<path fill-rule="evenodd" clip-rule="evenodd" d="M84.3674 68.271C84.3291 68.754 84.3006 69.2275 84.2815 69.691C84.2624 70.1548 84.2399 70.6217 84.2148 71.0911C84.3546 71.0911 84.6152 71.0889 84.9965 71.0821C85.3778 71.0754 85.791 71.0596 86.2361 71.0345C86.2233 71.0724 86.2169 71.1421 86.2169 71.2443V71.4343V71.6441C86.2169 71.7329 86.2233 71.7962 86.2361 71.8348C86.0707 71.8225 85.8994 71.8123 85.7209 71.8063C85.5435 71.7996 85.3527 71.7962 85.1495 71.7962H84.2148C84.2024 71.8472 84.1866 72.051 84.1671 72.4062C84.148 72.7621 84.1319 73.1847 84.1191 73.6737C84.1068 74.163 84.097 74.674 84.091 75.2079C84.0839 75.7411 84.0813 76.2176 84.0813 76.6369C84.0813 76.9924 84.091 77.342 84.1098 77.6848C84.1289 78.028 84.1889 78.336 84.2909 78.6091C84.3929 78.8823 84.5455 79.1018 84.749 79.2667C84.9523 79.4319 85.2447 79.5147 85.626 79.5147C85.7276 79.5147 85.8641 79.502 86.0358 79.4761C86.2076 79.451 86.3568 79.4192 86.4843 79.3806V79.8384C86.2679 79.8762 86.0295 79.9242 85.7689 79.9811C85.5083 80.0385 85.2571 80.0666 85.0156 80.0666C84.2148 80.0666 83.6235 79.8699 83.2422 79.4761C82.8608 79.0827 82.6704 78.5042 82.6704 77.7422C82.6704 77.3993 82.676 77.0273 82.6891 76.6272C82.7019 76.227 82.718 75.7887 82.7367 75.3125C82.7559 74.8359 82.7716 74.3087 82.7844 73.7306C82.7971 73.1529 82.8035 72.5085 82.8035 71.7962H82.1931C82.0915 71.7962 81.9839 71.7996 81.8691 71.8063C81.7548 71.8123 81.6337 71.8225 81.5066 71.8348C81.5189 71.7588 81.5291 71.6853 81.5354 71.6156C81.5418 71.546 81.5452 71.4725 81.5452 71.3965C81.5452 71.3328 81.5418 71.2695 81.5354 71.2058C81.5291 71.1421 81.5189 71.0787 81.5066 71.0154C82.0787 71.0536 82.4987 71.0724 82.7656 71.0724C82.7525 70.8184 82.7431 70.5006 82.7367 70.12C82.7304 69.7386 82.7146 69.3448 82.6891 68.9383L84.2721 68.271H84.3674Z" fill="#1A1919"/>
<path fill-rule="evenodd" clip-rule="evenodd" d="M92.835 75.1313C92.6187 75.2077 92.3675 75.2711 92.0818 75.322C91.7957 75.373 91.5062 75.4265 91.2138 75.4839C90.9213 75.5412 90.6322 75.6142 90.3462 75.703C90.0601 75.7922 89.8059 75.9129 89.5835 76.065C89.3608 76.2175 89.1831 76.4082 89.0492 76.6371C88.9161 76.8656 88.8494 77.1579 88.8494 77.5134C88.8494 78.1106 89.0207 78.5614 89.3642 78.8663C89.7073 79.1709 90.0889 79.3238 90.5081 79.3238C90.9914 79.3238 91.4335 79.1904 91.8335 78.9237C92.234 78.6565 92.5426 78.3459 92.7589 77.9896L92.835 75.1313ZM88.1246 71.7395C88.6968 71.3079 89.224 71.0156 89.7073 70.8628C90.1906 70.7099 90.6866 70.6342 91.1946 70.6342C91.6528 70.6342 92.072 70.7009 92.4533 70.8339C92.835 70.968 93.159 71.158 93.4263 71.406C93.6929 71.6537 93.9028 71.9523 94.0554 72.3015C94.2077 72.6514 94.2842 73.0351 94.2842 73.4543C94.2842 74.1785 94.271 74.8998 94.2463 75.6172C94.22 76.3351 94.2077 77.0938 94.2077 77.8948C94.2077 78.0469 94.211 78.2088 94.2178 78.3804C94.2234 78.5524 94.2523 78.7045 94.3033 78.8379C94.3543 78.9712 94.4274 79.0829 94.5226 79.1709C94.6179 79.2605 94.7611 79.3051 94.9519 79.3051C95.0149 79.3051 95.0817 79.3017 95.1518 79.295C95.2215 79.2893 95.2882 79.2665 95.3524 79.2286V79.6479C95.2121 79.7116 95.0374 79.7618 94.8274 79.8004C94.6179 79.8382 94.3861 79.8573 94.1319 79.8573C93.7244 79.8573 93.4132 79.7528 93.1972 79.543C92.9812 79.3332 92.8541 79.0634 92.8155 78.733C92.3585 79.1904 91.9067 79.5269 91.462 79.7431C91.0165 79.9592 90.4699 80.0668 89.8216 80.0668C89.504 80.0668 89.1925 80.0226 88.8873 79.9334C88.5821 79.8442 88.3121 79.6985 88.077 79.4954C87.8416 79.2923 87.6507 79.0477 87.5049 78.7614C87.3586 78.4759 87.2855 78.1489 87.2855 77.7798C87.2855 77.0181 87.524 76.4273 88.0005 76.008C88.4771 75.5888 89.1355 75.3096 89.9742 75.1695C90.6607 75.0552 91.198 74.9571 91.5861 74.8739C91.9734 74.7915 92.2595 74.7057 92.4439 74.6169C92.628 74.5285 92.7398 74.4232 92.7776 74.3025C92.8155 74.1819 92.835 74.0264 92.835 73.8357C92.835 73.518 92.7964 73.2134 92.7203 72.9212C92.6442 72.6285 92.5231 72.3749 92.3585 72.1583C92.1927 71.9425 91.9768 71.7679 91.7094 71.6346C91.4429 71.5016 91.1185 71.4345 90.7372 71.4345C90.2284 71.4345 89.7549 71.5488 89.3166 71.7773C88.8775 72.0059 88.5502 72.3239 88.3346 72.7305H88.1246V71.7395Z" fill="#1A1919"/>
<path fill-rule="evenodd" clip-rule="evenodd" d="M97.4782 72.5873C97.459 71.9586 97.4178 71.3712 97.3541 70.8249C97.7103 70.8882 97.9963 70.9201 98.2123 70.9201C98.3139 70.9201 98.4249 70.9103 98.5464 70.8916C98.6667 70.8725 98.81 70.85 98.9753 70.8249C98.9371 71.3326 98.9179 71.8414 98.9179 72.349H98.9558C99.6299 71.2056 100.577 70.6342 101.797 70.6342C102.115 70.6342 102.427 70.6818 102.732 70.7773C103.037 70.8725 103.314 71.0029 103.562 71.1677C103.81 71.3326 104.022 71.5334 104.2 71.7679C104.378 72.0029 104.499 72.2539 104.563 72.5206H104.601C104.906 71.9111 105.322 71.4439 105.85 71.1201C106.377 70.7964 106.985 70.6342 107.671 70.6342C108.091 70.6342 108.479 70.6912 108.834 70.8054C109.19 70.9201 109.499 71.098 109.759 71.3393C110.02 71.5806 110.223 71.892 110.37 72.273C110.516 72.6544 110.589 73.1115 110.589 73.645C110.589 73.8608 110.583 74.0961 110.57 74.3501C110.557 74.6045 110.544 74.8998 110.532 75.2358C110.519 75.573 110.506 75.9541 110.494 76.3797C110.481 76.8053 110.475 77.2972 110.475 77.8562C110.475 78.1994 110.478 78.5299 110.484 78.8472C110.49 79.1653 110.506 79.5081 110.532 79.8761C110.392 79.851 110.252 79.8386 110.112 79.8386H109.712H109.293C109.152 79.8386 109.013 79.851 108.873 79.8761C108.911 79.5587 108.952 78.9173 108.997 77.9514C109.041 76.9866 109.063 75.6394 109.063 73.9118C109.063 73.5944 109.029 73.2958 108.958 73.0163C108.889 72.7368 108.778 72.4955 108.624 72.2921C108.472 72.0887 108.269 71.9268 108.015 71.8062C107.76 71.6855 107.442 71.6252 107.061 71.6252C106.603 71.6252 106.215 71.714 105.898 71.892C105.58 72.0699 105.332 72.2794 105.154 72.5206C105.052 72.6604 104.973 72.8001 104.916 72.9399C104.858 73.0796 104.814 73.2925 104.782 73.5787C104.75 73.8642 104.728 74.2647 104.716 74.7791C104.703 75.2935 104.697 76.0017 104.697 76.9038C104.697 77.4501 104.706 77.9492 104.725 78.3995C104.744 78.8506 104.766 79.3429 104.792 79.8761C104.499 79.851 104.219 79.8386 103.953 79.8386C103.686 79.8386 103.406 79.851 103.114 79.8761C103.177 79.1781 103.221 78.4658 103.247 77.7423C103.272 77.0181 103.285 76.3066 103.285 75.6083C103.285 75.0107 103.282 74.5442 103.275 74.207C103.269 73.8709 103.253 73.6038 103.228 73.4071C103.202 73.21 103.168 73.0482 103.123 72.9212C103.078 72.7941 103.018 72.6544 102.942 72.5015C102.802 72.2603 102.582 72.0534 102.284 71.8822C101.985 71.7106 101.677 71.6252 101.359 71.6252C100.52 71.6252 99.9033 71.8987 99.5092 72.4446C99.1148 72.9908 98.9179 73.7593 98.9179 74.7503V76.3699C98.9179 76.9417 98.9277 77.5419 98.9468 78.171C98.9659 78.7996 99.0068 79.3684 99.0709 79.8761C98.7777 79.851 98.492 79.8386 98.2123 79.8386C97.933 79.8386 97.6465 79.851 97.3541 79.8761C97.4178 79.3684 97.459 78.7996 97.4782 78.171C97.4973 77.5419 97.5067 76.9417 97.5067 76.3699V74.3883C97.5067 73.8166 97.4973 73.2164 97.4782 72.5873Z" fill="#1A1919"/>
<path fill-rule="evenodd" clip-rule="evenodd" d="M118.256 75.1313C118.039 75.2077 117.788 75.2711 117.502 75.322C117.216 75.373 116.927 75.4265 116.634 75.4839C116.342 75.5412 116.053 75.6142 115.766 75.703C115.481 75.7922 115.226 75.9129 115.004 76.065C114.781 76.2175 114.604 76.4082 114.47 76.6371C114.336 76.8656 114.27 77.1579 114.27 77.5134C114.27 78.1106 114.441 78.5614 114.784 78.8663C115.127 79.1709 115.509 79.3238 115.929 79.3238C116.412 79.3238 116.854 79.1904 117.254 78.9237C117.655 78.6565 117.963 78.3459 118.179 77.9896L118.256 75.1313ZM113.545 71.7395C114.117 71.3079 114.644 71.0156 115.127 70.8628C115.611 70.7099 116.107 70.6342 116.615 70.6342C117.073 70.6342 117.493 70.7009 117.874 70.8339C118.256 70.968 118.579 71.158 118.846 71.406C119.113 71.6537 119.323 71.9523 119.476 72.3015C119.628 72.6514 119.704 73.0351 119.704 73.4543C119.704 74.1785 119.692 74.8998 119.667 75.6172C119.641 76.3351 119.628 77.0938 119.628 77.8948C119.628 78.0469 119.632 78.2088 119.638 78.3804C119.644 78.5524 119.672 78.7045 119.723 78.8379C119.774 78.9712 119.848 79.0829 119.943 79.1709C120.038 79.2605 120.182 79.3051 120.372 79.3051C120.435 79.3051 120.502 79.3017 120.572 79.295C120.642 79.2893 120.709 79.2665 120.773 79.2286V79.6479C120.632 79.7116 120.458 79.7618 120.248 79.8004C120.038 79.8382 119.807 79.8573 119.552 79.8573C119.145 79.8573 118.834 79.7528 118.618 79.543C118.401 79.3332 118.275 79.0634 118.236 78.733C117.779 79.1904 117.327 79.5269 116.882 79.7431C116.437 79.9592 115.89 80.0668 115.242 80.0668C114.924 80.0668 114.613 80.0226 114.308 79.9334C114.003 79.8442 113.732 79.6985 113.497 79.4954C113.262 79.2923 113.071 79.0477 112.925 78.7614C112.779 78.4759 112.706 78.1489 112.706 77.7798C112.706 77.0181 112.944 76.4273 113.421 76.008C113.898 75.5888 114.556 75.3096 115.395 75.1695C116.081 75.0552 116.619 74.9571 117.006 74.8739C117.394 74.7915 117.68 74.7057 117.864 74.6169C118.049 74.5285 118.16 74.4232 118.198 74.3025C118.236 74.1819 118.256 74.0264 118.256 73.8357C118.256 73.518 118.217 73.2134 118.14 72.9212C118.065 72.6285 117.944 72.3749 117.779 72.1583C117.613 71.9425 117.397 71.7679 117.13 71.6346C116.863 71.5016 116.539 71.4345 116.158 71.4345C115.649 71.4345 115.175 71.5488 114.737 71.7773C114.298 72.0059 113.971 72.3239 113.755 72.7305H113.545V71.7395Z" fill="#1A1919"/>
<path fill-rule="evenodd" clip-rule="evenodd" d="M60.3865 41.8965C51.737 41.8965 44.7253 34.8899 44.7253 26.2467C44.7253 17.604 51.737 10.597 60.3865 10.597C69.036 10.597 76.0482 17.604 76.0482 26.2467C76.0482 34.8899 69.036 41.8965 60.3865 41.8965ZM60.3865 -4.76837e-06C46.2179 -4.76837e-06 34.6757 11.2118 34.1459 25.2404C34.1321 25.5469 34.1242 25.8545 34.1223 26.1636C34.1223 26.1917 34.1204 26.219 34.1204 26.2467C34.1204 26.249 34.1204 26.2516 34.1204 26.2539C34.1204 26.2569 34.1204 26.2599 34.1204 26.2628C34.1204 26.542 34.1306 26.8181 34.1392 27.095V54.8067C34.1392 57.7275 36.5088 60.0958 39.4322 60.0958C42.3556 60.0958 44.7253 57.7275 44.7253 54.8067V47.3179C44.8689 47.4246 45.0173 47.5254 45.1632 47.6292C45.2367 47.6813 45.3094 47.7341 45.3833 47.7854C45.9517 48.1815 46.5366 48.5554 47.1365 48.9064C47.2066 48.9473 47.2771 48.9874 47.3476 49.0278C47.6805 49.2185 48.018 49.4021 48.3599 49.5786C48.4435 49.6217 48.5272 49.6648 48.6111 49.7071C48.961 49.8828 49.316 50.0503 49.6748 50.2107C49.7457 50.2425 49.8158 50.2755 49.8867 50.3066C50.0854 50.3935 50.286 50.477 50.4877 50.5591C50.6028 50.6063 50.7194 50.6509 50.8357 50.6962C51.1465 50.818 51.4603 50.9341 51.7771 51.0439C51.9057 51.0885 52.0351 51.1319 52.1645 51.1747C52.4659 51.2739 52.7692 51.3669 53.0752 51.4557C53.2188 51.4972 53.3624 51.5388 53.5071 51.5782C53.7085 51.6325 53.9109 51.685 54.1141 51.7348C54.2581 51.77 54.4032 51.8018 54.548 51.8348C54.8693 51.9079 55.1925 51.9753 55.5183 52.0364C55.5674 52.0458 55.6165 52.0566 55.666 52.0656C55.6634 52.0641 55.6608 52.0626 55.6585 52.0615C57.1928 52.3402 58.7713 52.4939 60.3865 52.4939C74.893 52.4939 86.653 40.7425 86.653 26.2467C86.653 11.751 74.893 -4.76837e-06 60.3865 -4.76837e-06Z" fill="#214384"/>
<path fill-rule="evenodd" clip-rule="evenodd" d="M61.7753 49.6858C55.1689 47.014 49.9992 41.9314 47.2183 35.3743C47.0593 34.9993 46.9517 34.6164 46.8831 34.232C46.4605 31.8574 47.7098 29.4213 50.0266 28.4404C50.4266 28.2711 50.8357 28.1606 51.2463 28.0942C51.2459 27.4727 51.2778 26.8462 51.3516 26.2146C51.6906 23.3128 49.6115 20.6864 46.7076 20.3473C46.4253 20.3143 46.1463 20.311 45.8711 20.3222C43.3155 20.4275 41.1424 22.3686 40.8364 24.9879C40.01 32.0616 41.9897 39.0333 46.411 44.6192C48.9419 47.8162 52.1011 50.3366 55.6661 52.0657C57.1932 52.3418 58.7634 52.4939 60.3704 52.4939C63.019 52.4939 65.5742 52.0979 67.9847 51.3691C65.8798 51.0623 63.7974 50.5037 61.7753 49.6858Z" fill="#F3B335"/>
<path fill-rule="evenodd" clip-rule="evenodd" d="M78.0655 39.7797C77.3321 40.0903 76.5882 40.3398 75.8395 40.535C72.9232 41.2955 69.9297 41.1996 67.169 40.3705C62.7379 39.0401 58.9075 35.8258 56.9657 31.2467C55.9942 28.9563 53.598 27.7117 51.2464 28.0942C50.8358 28.1606 50.4267 28.2711 50.0267 28.4404C47.7099 29.4213 46.4606 31.8574 46.8832 34.232C46.9518 34.6164 47.0594 34.9993 47.2184 35.3743C49.9993 41.9314 55.169 47.014 61.7754 49.6858C63.7971 50.5037 65.8799 51.0623 67.9845 51.3691C69.578 50.887 71.1058 50.256 72.5554 49.4955C79.0085 46.1092 83.8786 40.1217 85.7641 32.9237C84.0784 35.8906 81.4448 38.3488 78.0655 39.7797Z" fill="#31A571"/>
</svg>
